G75*
G70*
%OFA0B0*%
%FSLAX24Y24*%
%IPPOS*%
%LPD*%
%AMOC8*
5,1,8,0,0,1.08239X$1,22.5*
%
%ADD10C,0.0060*%
%ADD11C,0.0050*%
%ADD12C,0.0100*%
%ADD13C,0.0160*%
%ADD14C,0.0070*%
%ADD15C,0.0283*%
%ADD16R,0.0079X0.0079*%
D10*
X001041Y000787D02*
X000927Y001014D01*
X001154Y001014D02*
X001041Y000787D01*
X001295Y000844D02*
X001295Y001071D01*
X001352Y001127D01*
X001466Y001127D01*
X001522Y001071D01*
X001295Y000844D01*
X001352Y000787D01*
X001466Y000787D01*
X001522Y000844D01*
X001522Y001071D01*
X001664Y000844D02*
X001720Y000844D01*
X001720Y000787D01*
X001664Y000787D01*
X001664Y000844D01*
X001848Y000787D02*
X002075Y001014D01*
X002075Y001071D01*
X002018Y001127D01*
X001905Y001127D01*
X001848Y001071D01*
X001848Y000787D02*
X002075Y000787D01*
X002374Y000881D02*
X002624Y000631D01*
X003124Y000631D01*
X003374Y000881D01*
X003624Y000631D01*
X004124Y000631D01*
X004374Y000881D01*
X004374Y001381D01*
X004124Y001631D01*
X003624Y001631D01*
X003374Y001381D01*
X003374Y000881D01*
X003374Y001381D02*
X003124Y001631D01*
X002624Y001631D01*
X002374Y001381D01*
X002374Y000881D01*
X002309Y001631D02*
X001809Y001631D01*
X001559Y001881D01*
X001559Y002381D01*
X001809Y002631D01*
X001559Y002881D01*
X001559Y003381D01*
X001809Y003631D01*
X001559Y003881D01*
X001559Y004381D01*
X001809Y004631D01*
X001559Y004881D01*
X001559Y005381D01*
X001809Y005631D01*
X002309Y005631D01*
X002559Y005381D01*
X002559Y004881D01*
X002309Y004631D01*
X002559Y004381D01*
X002559Y003881D01*
X002309Y003631D01*
X001809Y003631D01*
X001445Y003850D02*
X001388Y003793D01*
X001161Y004020D01*
X001104Y003963D01*
X001104Y003850D01*
X001161Y003793D01*
X001388Y003793D01*
X001445Y003850D02*
X001445Y003963D01*
X001388Y004020D01*
X001161Y004020D01*
X001161Y004162D02*
X001104Y004218D01*
X001104Y004388D01*
X001445Y004388D01*
X001445Y004218D01*
X001388Y004162D01*
X001161Y004162D01*
X001104Y004817D02*
X001104Y005044D01*
X001331Y004817D01*
X001388Y004817D01*
X001445Y004874D01*
X001445Y004987D01*
X001388Y005044D01*
X001388Y005185D02*
X001445Y005242D01*
X001445Y005355D01*
X001388Y005412D01*
X001161Y005412D01*
X001104Y005355D01*
X001104Y005242D01*
X001161Y005185D01*
X001809Y004631D02*
X002309Y004631D01*
X002309Y003631D02*
X002559Y003381D01*
X002559Y002881D01*
X002309Y002631D01*
X002559Y002381D01*
X002559Y001881D01*
X002309Y001631D01*
X002778Y001752D02*
X002778Y002092D01*
X002948Y002092D01*
X003004Y002035D01*
X003004Y001808D01*
X002948Y001752D01*
X002778Y001752D01*
X003146Y001808D02*
X003203Y001752D01*
X003316Y001752D01*
X003373Y001808D01*
X003373Y001865D01*
X003316Y001922D01*
X003259Y001922D01*
X003316Y001922D02*
X003373Y001978D01*
X003373Y002035D01*
X003316Y002092D01*
X003203Y002092D01*
X003146Y002035D01*
X003801Y002092D02*
X003801Y001752D01*
X003971Y001752D01*
X004028Y001808D01*
X004028Y002035D01*
X003971Y002092D01*
X003801Y002092D01*
X004169Y001922D02*
X004396Y001922D01*
X004340Y002092D02*
X004169Y001922D01*
X004340Y001752D02*
X004340Y002092D01*
X004624Y001631D02*
X005124Y001631D01*
X005374Y001381D01*
X005624Y001631D01*
X006124Y001631D01*
X006374Y001381D01*
X006624Y001631D01*
X007124Y001631D01*
X007374Y001381D01*
X007374Y000881D01*
X007124Y000631D01*
X006624Y000631D01*
X006374Y000881D01*
X006124Y000631D01*
X005624Y000631D01*
X005374Y000881D01*
X005124Y000631D01*
X004624Y000631D01*
X004374Y000881D01*
X004374Y001381D02*
X004624Y001631D01*
X004825Y001752D02*
X004995Y001752D01*
X005052Y001808D01*
X005052Y002035D01*
X004995Y002092D01*
X004825Y002092D01*
X004825Y001752D01*
X005193Y001808D02*
X005250Y001752D01*
X005363Y001752D01*
X005420Y001808D01*
X005420Y001922D01*
X005363Y001978D01*
X005307Y001978D01*
X005193Y001922D01*
X005193Y002092D01*
X005420Y002092D01*
X005809Y002092D02*
X005809Y001752D01*
X005979Y001752D01*
X006036Y001808D01*
X006036Y002035D01*
X005979Y002092D01*
X005809Y002092D01*
X006177Y001922D02*
X006177Y001808D01*
X006234Y001752D01*
X006347Y001752D01*
X006404Y001808D01*
X006404Y001865D01*
X006347Y001922D01*
X006177Y001922D01*
X006291Y002035D01*
X006404Y002092D01*
X006328Y002344D02*
X006078Y002594D01*
X006078Y003094D01*
X006328Y003344D01*
X006828Y003344D01*
X007078Y003094D01*
X007328Y003344D01*
X007828Y003344D01*
X008078Y003094D01*
X008078Y002594D01*
X007828Y002344D01*
X007328Y002344D01*
X007078Y002594D01*
X006828Y002344D01*
X006328Y002344D01*
X005932Y002694D02*
X005932Y002751D01*
X005875Y002808D01*
X005762Y002808D01*
X005705Y002864D01*
X005705Y002921D01*
X005762Y002978D01*
X005875Y002978D01*
X005932Y002921D01*
X005932Y002694D02*
X005875Y002637D01*
X005762Y002637D01*
X005705Y002694D01*
X005563Y002694D02*
X005563Y002751D01*
X005507Y002808D01*
X005393Y002808D01*
X005337Y002864D01*
X005337Y002921D01*
X005393Y002978D01*
X005507Y002978D01*
X005563Y002921D01*
X005563Y002694D02*
X005507Y002637D01*
X005393Y002637D01*
X005337Y002694D01*
X005374Y001381D02*
X005374Y000881D01*
X006374Y000881D02*
X006374Y001381D01*
X006793Y001752D02*
X006963Y001752D01*
X007020Y001808D01*
X007020Y002035D01*
X006963Y002092D01*
X006793Y002092D01*
X006793Y001752D01*
X007162Y001752D02*
X007162Y001808D01*
X007388Y002035D01*
X007388Y002092D01*
X007162Y002092D01*
X007078Y002594D02*
X007078Y003094D01*
X007858Y002216D02*
X008108Y002466D01*
X008608Y002466D01*
X008858Y002216D01*
X008858Y001716D01*
X008608Y001466D01*
X008858Y001216D01*
X008858Y000716D01*
X008608Y000466D01*
X008108Y000466D01*
X007858Y000716D01*
X007858Y001216D01*
X008108Y001466D01*
X007858Y001716D01*
X007858Y002216D01*
X008108Y001466D02*
X008608Y001466D01*
X009464Y002044D02*
X009521Y001988D01*
X009747Y001988D01*
X009804Y002044D01*
X009804Y002158D01*
X009747Y002215D01*
X009747Y002356D02*
X009804Y002413D01*
X009804Y002526D01*
X009747Y002583D01*
X009634Y002583D01*
X009577Y002526D01*
X009577Y002470D01*
X009634Y002356D01*
X009464Y002356D01*
X009464Y002583D01*
X009521Y002215D02*
X009464Y002158D01*
X009464Y002044D01*
X009584Y003076D02*
X009334Y003326D01*
X009334Y003826D01*
X009584Y004076D01*
X009334Y004326D01*
X009334Y004826D01*
X009584Y005076D01*
X010084Y005076D01*
X010334Y004826D01*
X010334Y004326D01*
X010084Y004076D01*
X010334Y003826D01*
X010334Y003326D01*
X010084Y003076D01*
X009584Y003076D01*
X010448Y003287D02*
X010448Y003457D01*
X010505Y003514D01*
X010562Y003514D01*
X010618Y003457D01*
X010618Y003287D01*
X010788Y003287D02*
X010448Y003287D01*
X010618Y003457D02*
X010675Y003514D01*
X010732Y003514D01*
X010788Y003457D01*
X010788Y003287D01*
X010618Y003655D02*
X010618Y003882D01*
X010448Y003825D02*
X010618Y003655D01*
X010788Y003825D02*
X010448Y003825D01*
X010084Y004076D02*
X009584Y004076D01*
X010448Y004271D02*
X010448Y004441D01*
X010505Y004498D01*
X010562Y004498D01*
X010618Y004441D01*
X010618Y004271D01*
X010788Y004271D02*
X010448Y004271D01*
X010618Y004441D02*
X010675Y004498D01*
X010732Y004498D01*
X010788Y004441D01*
X010788Y004271D01*
X010732Y004640D02*
X010788Y004696D01*
X010788Y004810D01*
X010732Y004866D01*
X010618Y004866D01*
X010562Y004810D01*
X010562Y004753D01*
X010618Y004640D01*
X010448Y004640D01*
X010448Y004866D01*
X010084Y005076D02*
X010334Y005326D01*
X010334Y005826D01*
X010084Y006076D01*
X010334Y006326D01*
X010334Y006826D01*
X010084Y007076D01*
X010334Y007326D01*
X010334Y007826D01*
X010084Y008076D01*
X009584Y008076D01*
X009334Y007826D01*
X009334Y007326D01*
X009584Y007076D01*
X010084Y007076D01*
X010448Y006874D02*
X010448Y006647D01*
X010505Y006506D02*
X010562Y006506D01*
X010618Y006449D01*
X010618Y006279D01*
X010448Y006279D02*
X010448Y006449D01*
X010505Y006506D01*
X010618Y006449D02*
X010675Y006506D01*
X010732Y006506D01*
X010788Y006449D01*
X010788Y006279D01*
X010448Y006279D01*
X010732Y006647D02*
X010788Y006647D01*
X010732Y006647D02*
X010505Y006874D01*
X010448Y006874D01*
X010505Y007263D02*
X010732Y007263D01*
X010788Y007320D01*
X010788Y007434D01*
X010732Y007490D01*
X010732Y007632D02*
X010788Y007632D01*
X010732Y007632D02*
X010505Y007859D01*
X010448Y007859D01*
X010448Y007632D01*
X010505Y007490D02*
X010448Y007434D01*
X010448Y007320D01*
X010505Y007263D01*
X010084Y008076D02*
X010334Y008326D01*
X010334Y008826D01*
X010084Y009076D01*
X010334Y009326D01*
X010334Y009826D01*
X010084Y010076D01*
X010334Y010326D01*
X010334Y010826D01*
X010084Y011076D01*
X009584Y011076D01*
X009334Y010826D01*
X009334Y010326D01*
X009584Y010076D01*
X010084Y010076D01*
X010448Y009866D02*
X010448Y009640D01*
X010618Y009640D01*
X010562Y009753D01*
X010562Y009810D01*
X010618Y009866D01*
X010732Y009866D01*
X010788Y009810D01*
X010788Y009696D01*
X010732Y009640D01*
X010732Y009498D02*
X010788Y009441D01*
X010788Y009328D01*
X010732Y009271D01*
X010505Y009271D01*
X010448Y009328D01*
X010448Y009441D01*
X010505Y009498D01*
X010084Y009076D02*
X009584Y009076D01*
X009334Y009326D01*
X009334Y009826D01*
X009584Y010076D01*
X010421Y010370D02*
X010478Y010313D01*
X010704Y010313D01*
X010761Y010370D01*
X010761Y010483D01*
X010704Y010540D01*
X010591Y010682D02*
X010591Y010909D01*
X010761Y010852D02*
X010421Y010852D01*
X010591Y010682D01*
X010478Y010540D02*
X010421Y010483D01*
X010421Y010370D01*
X010409Y011494D02*
X010182Y011494D01*
X010126Y011551D01*
X010126Y011665D01*
X010182Y011721D01*
X010296Y011863D02*
X010296Y012090D01*
X010466Y012033D02*
X010126Y012033D01*
X010296Y011863D01*
X010409Y011721D02*
X010466Y011665D01*
X010466Y011551D01*
X010409Y011494D01*
X009584Y009076D02*
X009334Y008826D01*
X009334Y008326D01*
X009584Y008076D01*
X008775Y008318D02*
X008548Y008318D01*
X008661Y008318D02*
X008661Y007978D01*
X008509Y007871D02*
X008759Y007621D01*
X008759Y007121D01*
X008509Y006871D01*
X008009Y006871D01*
X007759Y007121D01*
X007759Y007621D01*
X008009Y007871D01*
X008509Y007871D01*
X008350Y007978D02*
X008406Y008035D01*
X008406Y008091D01*
X008350Y008148D01*
X008236Y008148D01*
X008179Y008205D01*
X008179Y008261D01*
X008236Y008318D01*
X008350Y008318D01*
X008406Y008261D01*
X008179Y008035D02*
X008236Y007978D01*
X008350Y007978D01*
X008038Y007978D02*
X007925Y008091D01*
X007981Y008091D02*
X007811Y008091D01*
X007811Y007978D02*
X007811Y008318D01*
X007981Y008318D01*
X008038Y008261D01*
X008038Y008148D01*
X007981Y008091D01*
X009334Y006826D02*
X009584Y007076D01*
X009334Y006826D02*
X009334Y006326D01*
X009584Y006076D01*
X010084Y006076D01*
X010448Y005890D02*
X010505Y005777D01*
X010618Y005663D01*
X010618Y005833D01*
X010675Y005890D01*
X010732Y005890D01*
X010788Y005833D01*
X010788Y005720D01*
X010732Y005663D01*
X010618Y005663D01*
X010562Y005522D02*
X010505Y005522D01*
X010448Y005465D01*
X010448Y005295D01*
X010788Y005295D01*
X010788Y005465D01*
X010732Y005522D01*
X010675Y005522D01*
X010618Y005465D01*
X010618Y005295D01*
X010618Y005465D02*
X010562Y005522D01*
X009584Y005076D02*
X009334Y005326D01*
X009334Y005826D01*
X009584Y006076D01*
X010505Y008326D02*
X010732Y008326D01*
X010788Y008383D01*
X010788Y008496D01*
X010732Y008553D01*
X010732Y008695D02*
X010618Y008695D01*
X010618Y008865D01*
X010675Y008922D01*
X010732Y008922D01*
X010788Y008865D01*
X010788Y008751D01*
X010732Y008695D01*
X010618Y008695D02*
X010505Y008808D01*
X010448Y008922D01*
X010505Y008553D02*
X010448Y008496D01*
X010448Y008383D01*
X010505Y008326D01*
X003346Y009664D02*
X003096Y009414D01*
X002596Y009414D01*
X002346Y009664D01*
X002346Y010164D01*
X002596Y010414D01*
X002346Y010664D01*
X002346Y011164D01*
X002596Y011414D01*
X002346Y011664D01*
X002346Y012164D01*
X002596Y012414D01*
X003096Y012414D01*
X003346Y012164D01*
X003346Y011664D01*
X003096Y011414D01*
X003346Y011164D01*
X003346Y010664D01*
X003096Y010414D01*
X003346Y010164D01*
X003346Y009664D01*
X003096Y010414D02*
X002596Y010414D01*
X002165Y010164D02*
X001915Y009914D01*
X001415Y009914D01*
X001165Y010164D01*
X001165Y010664D01*
X001415Y010914D01*
X001165Y011164D01*
X001165Y011664D01*
X001415Y011914D01*
X001915Y011914D01*
X002165Y011664D01*
X002165Y011164D01*
X001915Y010914D01*
X002165Y010664D01*
X002165Y010164D01*
X001915Y010914D02*
X001415Y010914D01*
X002596Y011414D02*
X003096Y011414D01*
X001445Y003404D02*
X001104Y003404D01*
X001104Y003234D01*
X001161Y003177D01*
X001388Y003177D01*
X001445Y003234D01*
X001445Y003404D01*
X001331Y003036D02*
X001445Y002922D01*
X001104Y002922D01*
X001104Y002809D02*
X001104Y003036D01*
X001104Y002420D02*
X001104Y002250D01*
X001161Y002193D01*
X001388Y002193D01*
X001445Y002250D01*
X001445Y002420D01*
X001104Y002420D01*
X001104Y002052D02*
X001331Y001825D01*
X001388Y001825D01*
X001445Y001881D01*
X001445Y001995D01*
X001388Y002052D01*
X001104Y002052D02*
X001104Y001825D01*
X001809Y002631D02*
X002309Y002631D01*
D11*
X001901Y006485D02*
X001822Y006485D01*
X001822Y008454D01*
X001901Y008454D01*
X003003Y008454D02*
X003082Y008454D01*
X003082Y006485D01*
X003003Y006485D01*
X000965Y010054D02*
X001010Y010099D01*
X001010Y010189D01*
X000965Y010234D01*
X000920Y010234D01*
X000875Y010189D01*
X000875Y010144D01*
X000875Y010189D02*
X000830Y010234D01*
X000785Y010234D01*
X000740Y010189D01*
X000740Y010099D01*
X000785Y010054D01*
X000830Y010348D02*
X001010Y010438D01*
X000830Y010528D01*
X000785Y010643D02*
X000740Y010688D01*
X000740Y010778D01*
X000785Y010823D01*
X000830Y010823D01*
X000875Y010778D01*
X000920Y010823D01*
X000965Y010823D01*
X001010Y010778D01*
X001010Y010688D01*
X000965Y010643D01*
X000875Y010733D02*
X000875Y010778D01*
X000785Y011136D02*
X000965Y011136D01*
X001010Y011181D01*
X001010Y011271D01*
X000965Y011316D01*
X000875Y011316D01*
X000875Y011226D01*
X000785Y011136D02*
X000740Y011181D01*
X000740Y011271D01*
X000785Y011316D01*
X000740Y011431D02*
X001010Y011611D01*
X000740Y011611D01*
X000740Y011726D02*
X000740Y011861D01*
X000785Y011906D01*
X000965Y011906D01*
X001010Y011861D01*
X001010Y011726D01*
X000740Y011726D01*
X000740Y011431D02*
X001010Y011431D01*
X003496Y011468D02*
X003496Y011333D01*
X003766Y011333D01*
X003766Y011468D01*
X003721Y011513D01*
X003676Y011513D01*
X003631Y011468D01*
X003631Y011333D01*
X003676Y011218D02*
X003766Y011128D01*
X003676Y011038D01*
X003496Y011038D01*
X003496Y011218D02*
X003676Y011218D01*
X003631Y011468D02*
X003586Y011513D01*
X003541Y011513D01*
X003496Y011468D01*
X003496Y011627D02*
X003721Y011627D01*
X003766Y011672D01*
X003766Y011762D01*
X003721Y011807D01*
X003496Y011807D01*
X003541Y011922D02*
X003496Y011967D01*
X003496Y012057D01*
X003541Y012102D01*
X003631Y012057D02*
X003676Y012102D01*
X003721Y012102D01*
X003766Y012057D01*
X003766Y011967D01*
X003721Y011922D01*
X003631Y011967D02*
X003631Y012057D01*
X003631Y011967D02*
X003586Y011922D01*
X003541Y011922D01*
X004618Y012513D02*
X004814Y012513D01*
X004283Y013497D02*
X004283Y014481D01*
X006783Y012513D02*
X006980Y012513D01*
X007314Y013497D02*
X007314Y014481D01*
X007317Y003788D02*
X007227Y003788D01*
X007182Y003743D01*
X007182Y003698D01*
X007227Y003653D01*
X007317Y003653D01*
X007362Y003608D01*
X007362Y003563D01*
X007317Y003518D01*
X007227Y003518D01*
X007182Y003563D01*
X007362Y003743D02*
X007317Y003788D01*
X007477Y003743D02*
X007477Y003563D01*
X007522Y003518D01*
X007612Y003518D01*
X007657Y003563D01*
X007771Y003518D02*
X007951Y003518D01*
X008066Y003518D02*
X008066Y003788D01*
X008111Y003653D02*
X008246Y003518D01*
X008066Y003608D02*
X008246Y003788D01*
X007771Y003788D02*
X007771Y003518D01*
X007657Y003743D02*
X007612Y003788D01*
X007522Y003788D01*
X007477Y003743D01*
X008934Y002387D02*
X008934Y002296D01*
X008934Y002341D02*
X009204Y002341D01*
X009204Y002296D02*
X009204Y002387D01*
X009159Y002182D02*
X008979Y002182D01*
X008934Y002137D01*
X008934Y002002D01*
X009204Y002002D01*
X009204Y002137D01*
X009159Y002182D01*
X009069Y001887D02*
X008979Y001887D01*
X008934Y001842D01*
X008934Y001707D01*
X009204Y001707D01*
X009114Y001707D02*
X009114Y001842D01*
X009069Y001887D01*
X009159Y001473D02*
X008979Y001473D01*
X008934Y001428D01*
X008934Y001338D01*
X008979Y001293D01*
X009159Y001293D01*
X009204Y001338D01*
X009204Y001428D01*
X009159Y001473D01*
X009159Y001178D02*
X008979Y001178D01*
X008934Y001133D01*
X008934Y000998D01*
X009204Y000998D01*
X009204Y001133D01*
X009159Y001178D01*
X009069Y000883D02*
X008979Y000883D01*
X008934Y000838D01*
X008934Y000703D01*
X009204Y000703D01*
X009114Y000703D02*
X009114Y000838D01*
X009069Y000883D01*
D12*
X008747Y013572D02*
X008749Y013635D01*
X008755Y013697D01*
X008765Y013759D01*
X008779Y013820D01*
X008796Y013881D01*
X008818Y013940D01*
X008843Y013997D01*
X008872Y014053D01*
X008904Y014107D01*
X008940Y014158D01*
X008978Y014208D01*
X009020Y014254D01*
X009065Y014299D01*
X009112Y014340D01*
X009162Y014378D01*
X009215Y014412D01*
X009269Y014444D01*
X009325Y014472D01*
X009383Y014496D01*
X009442Y014516D01*
X009503Y014533D01*
X009564Y014546D01*
X009626Y014555D01*
X009689Y014560D01*
X009752Y014561D01*
X009814Y014558D01*
X009877Y014551D01*
X009939Y014540D01*
X010000Y014525D01*
X010059Y014507D01*
X010118Y014484D01*
X010175Y014458D01*
X010231Y014428D01*
X010284Y014395D01*
X010335Y014359D01*
X010384Y014319D01*
X010430Y014277D01*
X010473Y014231D01*
X010513Y014183D01*
X010551Y014133D01*
X010585Y014080D01*
X010615Y014025D01*
X010642Y013969D01*
X010665Y013910D01*
X010685Y013851D01*
X010701Y013790D01*
X010713Y013728D01*
X010721Y013666D01*
X010725Y013603D01*
X010725Y013541D01*
X010721Y013478D01*
X010713Y013416D01*
X010701Y013354D01*
X010685Y013293D01*
X010665Y013234D01*
X010642Y013175D01*
X010615Y013119D01*
X010585Y013064D01*
X010551Y013011D01*
X010513Y012961D01*
X010473Y012913D01*
X010430Y012867D01*
X010384Y012825D01*
X010335Y012785D01*
X010284Y012749D01*
X010230Y012716D01*
X010175Y012686D01*
X010118Y012660D01*
X010059Y012637D01*
X010000Y012619D01*
X009939Y012604D01*
X009877Y012593D01*
X009814Y012586D01*
X009752Y012583D01*
X009689Y012584D01*
X009626Y012589D01*
X009564Y012598D01*
X009503Y012611D01*
X009442Y012628D01*
X009383Y012648D01*
X009325Y012672D01*
X009269Y012700D01*
X009215Y012732D01*
X009162Y012766D01*
X009112Y012804D01*
X009065Y012845D01*
X009020Y012890D01*
X008978Y012936D01*
X008940Y012986D01*
X008904Y013037D01*
X008872Y013091D01*
X008843Y013147D01*
X008818Y013204D01*
X008796Y013263D01*
X008779Y013324D01*
X008765Y013385D01*
X008755Y013447D01*
X008749Y013509D01*
X008747Y013572D01*
X000873Y013572D02*
X000875Y013635D01*
X000881Y013697D01*
X000891Y013759D01*
X000905Y013820D01*
X000922Y013881D01*
X000944Y013940D01*
X000969Y013997D01*
X000998Y014053D01*
X001030Y014107D01*
X001066Y014158D01*
X001104Y014208D01*
X001146Y014254D01*
X001191Y014299D01*
X001238Y014340D01*
X001288Y014378D01*
X001341Y014412D01*
X001395Y014444D01*
X001451Y014472D01*
X001509Y014496D01*
X001568Y014516D01*
X001629Y014533D01*
X001690Y014546D01*
X001752Y014555D01*
X001815Y014560D01*
X001878Y014561D01*
X001940Y014558D01*
X002003Y014551D01*
X002065Y014540D01*
X002126Y014525D01*
X002185Y014507D01*
X002244Y014484D01*
X002301Y014458D01*
X002357Y014428D01*
X002410Y014395D01*
X002461Y014359D01*
X002510Y014319D01*
X002556Y014277D01*
X002599Y014231D01*
X002639Y014183D01*
X002677Y014133D01*
X002711Y014080D01*
X002741Y014025D01*
X002768Y013969D01*
X002791Y013910D01*
X002811Y013851D01*
X002827Y013790D01*
X002839Y013728D01*
X002847Y013666D01*
X002851Y013603D01*
X002851Y013541D01*
X002847Y013478D01*
X002839Y013416D01*
X002827Y013354D01*
X002811Y013293D01*
X002791Y013234D01*
X002768Y013175D01*
X002741Y013119D01*
X002711Y013064D01*
X002677Y013011D01*
X002639Y012961D01*
X002599Y012913D01*
X002556Y012867D01*
X002510Y012825D01*
X002461Y012785D01*
X002410Y012749D01*
X002356Y012716D01*
X002301Y012686D01*
X002244Y012660D01*
X002185Y012637D01*
X002126Y012619D01*
X002065Y012604D01*
X002003Y012593D01*
X001940Y012586D01*
X001878Y012583D01*
X001815Y012584D01*
X001752Y012589D01*
X001690Y012598D01*
X001629Y012611D01*
X001568Y012628D01*
X001509Y012648D01*
X001451Y012672D01*
X001395Y012700D01*
X001341Y012732D01*
X001288Y012766D01*
X001238Y012804D01*
X001191Y012845D01*
X001146Y012890D01*
X001104Y012936D01*
X001066Y012986D01*
X001030Y013037D01*
X000998Y013091D01*
X000969Y013147D01*
X000944Y013204D01*
X000922Y013263D01*
X000905Y013324D01*
X000891Y013385D01*
X000881Y013447D01*
X000875Y013509D01*
X000873Y013572D01*
D13*
X002157Y011407D02*
X002354Y011407D01*
X002501Y011259D01*
X002329Y010422D02*
X002157Y010422D01*
X002329Y010422D02*
X002501Y010250D01*
D14*
X004488Y006972D02*
X004348Y006832D01*
X004348Y004290D01*
X007029Y004290D01*
X007029Y006972D01*
X004488Y006972D01*
D15*
X004648Y006672D03*
D16*
X009283Y011800D03*
X009637Y001111D03*
M02*
