G75*
G70*
%OFA0B0*%
%FSLAX24Y24*%
%IPPOS*%
%LPD*%
%AMOC8*
5,1,8,0,0,1.08239X$1,22.5*
%
%ADD10C,0.1340*%
%ADD11OC8,0.0680*%
%ADD12C,0.0136*%
%ADD13C,0.0434*%
%ADD14OC8,0.0516*%
D10*
X001468Y012906D03*
X009342Y012906D03*
D11*
X001862Y002547D03*
X001862Y003547D03*
X001862Y004547D03*
X001862Y005547D03*
X002578Y001449D03*
X003578Y001449D03*
X004578Y001449D03*
X005578Y001449D03*
X006578Y001449D03*
X008055Y001579D03*
X008055Y002579D03*
X009055Y002579D03*
X009055Y001579D03*
X008751Y004091D03*
X008751Y005091D03*
X008751Y006091D03*
X008751Y007091D03*
X008751Y008091D03*
X008751Y009091D03*
X008751Y010091D03*
X008751Y011091D03*
X007177Y007591D03*
D12*
X002406Y010342D02*
X002338Y010274D01*
X002338Y010500D01*
X002496Y010658D01*
X002722Y010658D01*
X002880Y010500D01*
X002880Y010274D01*
X002722Y010116D01*
X002496Y010116D01*
X002338Y010274D01*
X002440Y010317D01*
X002440Y010457D01*
X002539Y010556D01*
X002679Y010556D01*
X002778Y010457D01*
X002778Y010317D01*
X002679Y010218D01*
X002539Y010218D01*
X002440Y010317D01*
X002542Y010359D01*
X002542Y010415D01*
X002581Y010454D01*
X002637Y010454D01*
X002676Y010415D01*
X002676Y010359D01*
X002637Y010320D01*
X002581Y010320D01*
X002542Y010359D01*
X001699Y011049D02*
X001631Y010981D01*
X001631Y011207D01*
X001789Y011365D01*
X002015Y011365D01*
X002173Y011207D01*
X002173Y010981D01*
X002015Y010823D01*
X001789Y010823D01*
X001631Y010981D01*
X001733Y011024D01*
X001733Y011164D01*
X001832Y011263D01*
X001972Y011263D01*
X002071Y011164D01*
X002071Y011024D01*
X001972Y010925D01*
X001832Y010925D01*
X001733Y011024D01*
X001835Y011066D01*
X001835Y011122D01*
X001874Y011161D01*
X001930Y011161D01*
X001969Y011122D01*
X001969Y011066D01*
X001930Y011027D01*
X001874Y011027D01*
X001835Y011066D01*
D13*
X004539Y012811D03*
X006271Y012811D03*
D14*
X006192Y010740D03*
X004086Y008634D03*
M02*
