G75*
G70*
%OFA0B0*%
%FSLAX24Y24*%
%IPPOS*%
%LPD*%
%AMOC8*
5,1,8,0,0,1.08239X$1,22.5*
%
%ADD10C,0.1340*%
%ADD11R,0.0580X0.0280*%
%ADD12R,0.0280X0.0580*%
%ADD13R,0.0710X0.0790*%
%ADD14R,0.0710X0.0789*%
%ADD15OC8,0.0680*%
%ADD16R,0.0789X0.0710*%
%ADD17R,0.0867X0.0789*%
%ADD18C,0.0434*%
%ADD19R,0.0867X0.1064*%
%ADD20R,0.0277X0.0986*%
%ADD21R,0.1025X0.0749*%
%ADD22R,0.0790X0.0710*%
%ADD23R,0.0552X0.0552*%
%ADD24OC8,0.0516*%
D10*
X001862Y013572D03*
X009736Y013572D03*
D11*
X007379Y006733D03*
X007379Y006418D03*
X007379Y006103D03*
X007379Y005789D03*
X007379Y005474D03*
X007379Y005159D03*
X007379Y004844D03*
X007379Y004529D03*
X003999Y004529D03*
X003999Y004844D03*
X003999Y005159D03*
X003999Y005474D03*
X003999Y005789D03*
X003999Y006103D03*
X003999Y006418D03*
X003999Y006733D03*
D12*
X004586Y007321D03*
X004901Y007321D03*
X005216Y007321D03*
X005531Y007321D03*
X005846Y007321D03*
X006161Y007321D03*
X006476Y007321D03*
X006791Y007321D03*
X006791Y003941D03*
X006476Y003941D03*
X006161Y003941D03*
X005846Y003941D03*
X005531Y003941D03*
X005216Y003941D03*
X004901Y003941D03*
X004586Y003941D03*
D13*
G36*
X006447Y009492D02*
X005945Y008990D01*
X005387Y009548D01*
X005889Y010050D01*
X006447Y009492D01*
G37*
G36*
X007239Y010284D02*
X006737Y009782D01*
X006179Y010340D01*
X006681Y010842D01*
X007239Y010284D01*
G37*
G36*
X005693Y011564D02*
X006195Y012066D01*
X006753Y011508D01*
X006251Y011006D01*
X005693Y011564D01*
G37*
G36*
X004902Y010772D02*
X005404Y011274D01*
X005962Y010716D01*
X005460Y010214D01*
X004902Y010772D01*
G37*
D14*
G36*
X006181Y008741D02*
X006683Y009243D01*
X007239Y008687D01*
X006737Y008185D01*
X006181Y008741D01*
G37*
G36*
X006960Y009520D02*
X007462Y010022D01*
X008018Y009466D01*
X007516Y008964D01*
X006960Y009520D01*
G37*
D15*
X002059Y002131D03*
X002059Y003131D03*
X002059Y004131D03*
X002059Y005131D03*
X002874Y001131D03*
X003874Y001131D03*
X004874Y001131D03*
X005874Y001131D03*
X006874Y001131D03*
X006578Y002844D03*
X007578Y002844D03*
X008358Y001966D03*
X008358Y000966D03*
X009834Y003576D03*
X009834Y004576D03*
X009834Y005576D03*
X009834Y006576D03*
X009834Y007576D03*
X009834Y008576D03*
X009834Y009576D03*
X009834Y010576D03*
X008259Y007371D03*
X002846Y009914D03*
X002846Y010914D03*
X002846Y011914D03*
X001665Y011414D03*
X001665Y010414D03*
D16*
X001271Y009438D03*
X001271Y008336D03*
X001271Y007430D03*
X001271Y006328D03*
X004282Y009043D03*
X004282Y010145D03*
D17*
X004047Y014974D03*
X007551Y014974D03*
D18*
X006665Y013792D03*
X004933Y013792D03*
D19*
X004047Y012808D03*
X007551Y012808D03*
D20*
X006429Y012808D03*
X006114Y012808D03*
X005799Y012808D03*
X005484Y012808D03*
X005169Y012808D03*
D21*
X002452Y008592D03*
X002452Y006348D03*
D22*
X008653Y009666D03*
X008653Y010785D03*
X010425Y002616D03*
X010425Y001496D03*
D23*
X009637Y001485D03*
X009637Y000659D03*
X009657Y011800D03*
X008830Y011800D03*
D24*
X007374Y011603D03*
X007354Y010855D03*
X004303Y011052D03*
X003909Y007312D03*
X003333Y005944D03*
X005415Y006594D03*
M02*
