G75*
G70*
%OFA0B0*%
%FSLAX24Y24*%
%IPPOS*%
%LPD*%
%AMOC8*
5,1,8,0,0,1.08239X$1,22.5*
%
%ADD10C,0.0000*%
D10*
X000484Y000186D02*
X000484Y015737D01*
X011114Y015737D01*
X011114Y000186D01*
X000484Y000186D01*
X001232Y013572D02*
X001234Y013622D01*
X001240Y013672D01*
X001250Y013721D01*
X001264Y013769D01*
X001281Y013816D01*
X001302Y013861D01*
X001327Y013905D01*
X001355Y013946D01*
X001387Y013985D01*
X001421Y014022D01*
X001458Y014056D01*
X001498Y014086D01*
X001540Y014113D01*
X001584Y014137D01*
X001630Y014158D01*
X001677Y014174D01*
X001725Y014187D01*
X001775Y014196D01*
X001824Y014201D01*
X001875Y014202D01*
X001925Y014199D01*
X001974Y014192D01*
X002023Y014181D01*
X002071Y014166D01*
X002117Y014148D01*
X002162Y014126D01*
X002205Y014100D01*
X002246Y014071D01*
X002285Y014039D01*
X002321Y014004D01*
X002353Y013966D01*
X002383Y013926D01*
X002410Y013883D01*
X002433Y013839D01*
X002452Y013793D01*
X002468Y013745D01*
X002480Y013696D01*
X002488Y013647D01*
X002492Y013597D01*
X002492Y013547D01*
X002488Y013497D01*
X002480Y013448D01*
X002468Y013399D01*
X002452Y013351D01*
X002433Y013305D01*
X002410Y013261D01*
X002383Y013218D01*
X002353Y013178D01*
X002321Y013140D01*
X002285Y013105D01*
X002246Y013073D01*
X002205Y013044D01*
X002162Y013018D01*
X002117Y012996D01*
X002071Y012978D01*
X002023Y012963D01*
X001974Y012952D01*
X001925Y012945D01*
X001875Y012942D01*
X001824Y012943D01*
X001775Y012948D01*
X001725Y012957D01*
X001677Y012970D01*
X001630Y012986D01*
X001584Y013007D01*
X001540Y013031D01*
X001498Y013058D01*
X001458Y013088D01*
X001421Y013122D01*
X001387Y013159D01*
X001355Y013198D01*
X001327Y013239D01*
X001302Y013283D01*
X001281Y013328D01*
X001264Y013375D01*
X001250Y013423D01*
X001240Y013472D01*
X001234Y013522D01*
X001232Y013572D01*
X004756Y013792D02*
X004758Y013818D01*
X004764Y013844D01*
X004774Y013869D01*
X004787Y013892D01*
X004803Y013912D01*
X004823Y013930D01*
X004845Y013945D01*
X004868Y013957D01*
X004894Y013965D01*
X004920Y013969D01*
X004946Y013969D01*
X004972Y013965D01*
X004998Y013957D01*
X005022Y013945D01*
X005043Y013930D01*
X005063Y013912D01*
X005079Y013892D01*
X005092Y013869D01*
X005102Y013844D01*
X005108Y013818D01*
X005110Y013792D01*
X005108Y013766D01*
X005102Y013740D01*
X005092Y013715D01*
X005079Y013692D01*
X005063Y013672D01*
X005043Y013654D01*
X005021Y013639D01*
X004998Y013627D01*
X004972Y013619D01*
X004946Y013615D01*
X004920Y013615D01*
X004894Y013619D01*
X004868Y013627D01*
X004844Y013639D01*
X004823Y013654D01*
X004803Y013672D01*
X004787Y013692D01*
X004774Y013715D01*
X004764Y013740D01*
X004758Y013766D01*
X004756Y013792D01*
X006488Y013792D02*
X006490Y013818D01*
X006496Y013844D01*
X006506Y013869D01*
X006519Y013892D01*
X006535Y013912D01*
X006555Y013930D01*
X006577Y013945D01*
X006600Y013957D01*
X006626Y013965D01*
X006652Y013969D01*
X006678Y013969D01*
X006704Y013965D01*
X006730Y013957D01*
X006754Y013945D01*
X006775Y013930D01*
X006795Y013912D01*
X006811Y013892D01*
X006824Y013869D01*
X006834Y013844D01*
X006840Y013818D01*
X006842Y013792D01*
X006840Y013766D01*
X006834Y013740D01*
X006824Y013715D01*
X006811Y013692D01*
X006795Y013672D01*
X006775Y013654D01*
X006753Y013639D01*
X006730Y013627D01*
X006704Y013619D01*
X006678Y013615D01*
X006652Y013615D01*
X006626Y013619D01*
X006600Y013627D01*
X006576Y013639D01*
X006555Y013654D01*
X006535Y013672D01*
X006519Y013692D01*
X006506Y013715D01*
X006496Y013740D01*
X006490Y013766D01*
X006488Y013792D01*
X009106Y013572D02*
X009108Y013622D01*
X009114Y013672D01*
X009124Y013721D01*
X009138Y013769D01*
X009155Y013816D01*
X009176Y013861D01*
X009201Y013905D01*
X009229Y013946D01*
X009261Y013985D01*
X009295Y014022D01*
X009332Y014056D01*
X009372Y014086D01*
X009414Y014113D01*
X009458Y014137D01*
X009504Y014158D01*
X009551Y014174D01*
X009599Y014187D01*
X009649Y014196D01*
X009698Y014201D01*
X009749Y014202D01*
X009799Y014199D01*
X009848Y014192D01*
X009897Y014181D01*
X009945Y014166D01*
X009991Y014148D01*
X010036Y014126D01*
X010079Y014100D01*
X010120Y014071D01*
X010159Y014039D01*
X010195Y014004D01*
X010227Y013966D01*
X010257Y013926D01*
X010284Y013883D01*
X010307Y013839D01*
X010326Y013793D01*
X010342Y013745D01*
X010354Y013696D01*
X010362Y013647D01*
X010366Y013597D01*
X010366Y013547D01*
X010362Y013497D01*
X010354Y013448D01*
X010342Y013399D01*
X010326Y013351D01*
X010307Y013305D01*
X010284Y013261D01*
X010257Y013218D01*
X010227Y013178D01*
X010195Y013140D01*
X010159Y013105D01*
X010120Y013073D01*
X010079Y013044D01*
X010036Y013018D01*
X009991Y012996D01*
X009945Y012978D01*
X009897Y012963D01*
X009848Y012952D01*
X009799Y012945D01*
X009749Y012942D01*
X009698Y012943D01*
X009649Y012948D01*
X009599Y012957D01*
X009551Y012970D01*
X009504Y012986D01*
X009458Y013007D01*
X009414Y013031D01*
X009372Y013058D01*
X009332Y013088D01*
X009295Y013122D01*
X009261Y013159D01*
X009229Y013198D01*
X009201Y013239D01*
X009176Y013283D01*
X009155Y013328D01*
X009138Y013375D01*
X009124Y013423D01*
X009114Y013472D01*
X009108Y013522D01*
X009106Y013572D01*
M02*
