G75*
G70*
%OFA0B0*%
%FSLAX24Y24*%
%IPPOS*%
%LPD*%
%AMOC8*
5,1,8,0,0,1.08239X$1,22.5*
%
%ADD10R,0.0500X0.0200*%
%ADD11R,0.0200X0.0500*%
%ADD12R,0.0710X0.0630*%
%ADD13R,0.0630X0.0709*%
%ADD14OC8,0.0600*%
%ADD15C,0.0120*%
%ADD16R,0.0709X0.0630*%
%ADD17R,0.0787X0.0709*%
%ADD18R,0.0787X0.0984*%
%ADD19R,0.0197X0.0906*%
%ADD20R,0.0945X0.0669*%
%ADD21C,0.0160*%
%ADD22C,0.0100*%
%ADD23OC8,0.0436*%
D10*
X003408Y004551D03*
X003408Y004866D03*
X003408Y005181D03*
X003408Y005496D03*
X003408Y005811D03*
X003408Y006126D03*
X003408Y006441D03*
X003408Y006756D03*
X006788Y006756D03*
X006788Y006441D03*
X006788Y006126D03*
X006788Y005811D03*
X006788Y005496D03*
X006788Y005181D03*
X006788Y004866D03*
X006788Y004551D03*
D11*
X006200Y003964D03*
X005885Y003964D03*
X005570Y003964D03*
X005255Y003964D03*
X004940Y003964D03*
X004626Y003964D03*
X004311Y003964D03*
X003996Y003964D03*
X003996Y007344D03*
X004311Y007344D03*
X004626Y007344D03*
X004940Y007344D03*
X005255Y007344D03*
X005570Y007344D03*
X005885Y007344D03*
X006200Y007344D03*
D12*
X005011Y009196D03*
X005011Y010316D03*
X004047Y010709D03*
X004047Y009590D03*
D13*
G36*
X006196Y009747D02*
X006642Y010193D01*
X007142Y009693D01*
X006696Y009247D01*
X006196Y009747D01*
G37*
G36*
X006975Y010527D02*
X007421Y010973D01*
X007921Y010473D01*
X007475Y010027D01*
X006975Y010527D01*
G37*
D14*
X008751Y010091D03*
X008751Y011091D03*
X008751Y009091D03*
X008751Y008091D03*
X008751Y007091D03*
X008751Y006091D03*
X008751Y005091D03*
X008751Y004091D03*
X009055Y002579D03*
X009055Y001579D03*
X008055Y001579D03*
X008055Y002579D03*
X006578Y001449D03*
X005578Y001449D03*
X004578Y001449D03*
X003578Y001449D03*
X002578Y001449D03*
X001862Y002547D03*
X001862Y003547D03*
X001862Y004547D03*
X001862Y005547D03*
X007177Y007591D03*
D15*
X002430Y010348D02*
X002370Y010288D01*
X002370Y010486D01*
X002510Y010626D01*
X002708Y010626D01*
X002848Y010486D01*
X002848Y010288D01*
X002708Y010148D01*
X002510Y010148D01*
X002370Y010288D01*
X002460Y010325D01*
X002460Y010449D01*
X002547Y010536D01*
X002671Y010536D01*
X002758Y010449D01*
X002758Y010325D01*
X002671Y010238D01*
X002547Y010238D01*
X002460Y010325D01*
X002550Y010362D01*
X002550Y010412D01*
X002584Y010446D01*
X002634Y010446D01*
X002668Y010412D01*
X002668Y010362D01*
X002634Y010328D01*
X002584Y010328D01*
X002550Y010362D01*
X001723Y011055D02*
X001663Y010995D01*
X001663Y011193D01*
X001803Y011333D01*
X002001Y011333D01*
X002141Y011193D01*
X002141Y010995D01*
X002001Y010855D01*
X001803Y010855D01*
X001663Y010995D01*
X001753Y011032D01*
X001753Y011156D01*
X001840Y011243D01*
X001964Y011243D01*
X002051Y011156D01*
X002051Y011032D01*
X001964Y010945D01*
X001840Y010945D01*
X001753Y011032D01*
X001843Y011069D01*
X001843Y011119D01*
X001877Y011153D01*
X001927Y011153D01*
X001961Y011119D01*
X001961Y011069D01*
X001927Y011035D01*
X001877Y011035D01*
X001843Y011069D01*
D16*
X001271Y009756D03*
X001271Y008654D03*
X001271Y007748D03*
X001271Y006646D03*
D17*
X003653Y013992D03*
X007157Y013992D03*
D18*
X007157Y011827D03*
X003653Y011827D03*
D19*
X004775Y011827D03*
X005090Y011827D03*
X005405Y011827D03*
X005720Y011827D03*
X006035Y011827D03*
D20*
X002452Y008909D03*
X002452Y006665D03*
D21*
X002433Y006646D01*
X001271Y006646D01*
X001862Y005547D02*
X001913Y005496D01*
X003408Y005496D01*
X003408Y005181D02*
X002496Y005181D01*
X001862Y004547D01*
X002452Y004638D02*
X002452Y004138D01*
X001862Y003547D01*
X002846Y003531D02*
X001862Y002547D01*
X002578Y001449D02*
X003996Y002866D01*
X003996Y003964D01*
X004311Y003964D02*
X004311Y002181D01*
X003578Y001449D01*
X004578Y001449D02*
X004626Y001496D01*
X004626Y003964D01*
X004940Y003964D02*
X004940Y002087D01*
X005578Y001449D01*
X006578Y001449D02*
X005255Y002772D01*
X005255Y003964D01*
X005570Y003964D02*
X005570Y003488D01*
X007492Y001567D01*
X007492Y001370D01*
X007846Y001016D01*
X008492Y001016D01*
X009055Y001579D01*
X009055Y002579D02*
X009055Y002957D01*
X008633Y003378D01*
X007846Y003378D01*
X006788Y004436D01*
X006788Y004551D01*
X006788Y004866D02*
X007976Y004866D01*
X008751Y004091D01*
X008751Y005091D02*
X008661Y005181D01*
X006788Y005181D01*
X006788Y005496D02*
X008157Y005496D01*
X008751Y006091D01*
X008751Y007091D02*
X007472Y005811D01*
X006788Y005811D01*
X006788Y006126D02*
X007287Y006126D01*
X008240Y007079D01*
X008240Y007579D01*
X008751Y008091D01*
X007885Y008224D02*
X008751Y009091D01*
X008751Y010091D02*
X008496Y010091D01*
X006200Y007795D01*
X006200Y007344D01*
X005885Y007344D02*
X005885Y007874D01*
X008200Y010189D01*
X008200Y010543D01*
X008748Y011091D01*
X008751Y011091D01*
X007885Y008224D02*
X007885Y007197D01*
X007129Y006441D01*
X006788Y006441D01*
X006788Y006756D02*
X006788Y007202D01*
X007177Y007591D01*
X006669Y009051D02*
X005570Y007953D01*
X005570Y007344D01*
X005570Y006772D01*
X005405Y006606D01*
X004224Y006606D01*
X004224Y006823D01*
X003996Y007051D01*
X003996Y007344D01*
X003996Y007819D01*
X003437Y008378D01*
X003437Y009559D01*
X002609Y010387D01*
X001803Y009756D02*
X002452Y009106D01*
X002452Y008909D01*
X002452Y008181D01*
X003408Y007225D01*
X003408Y006756D01*
X003408Y006441D02*
X002677Y006441D01*
X002452Y006665D01*
X003408Y005811D02*
X004019Y005811D01*
X004224Y006016D01*
X004224Y006606D01*
X004311Y007344D02*
X004311Y008409D01*
X004086Y008634D01*
X004626Y008189D02*
X004626Y007344D01*
X004940Y007344D02*
X004940Y008110D01*
X005602Y008772D01*
X005602Y009559D01*
X005405Y009756D01*
X004213Y009756D01*
X004047Y009590D01*
X004047Y010709D02*
X004274Y010937D01*
X005031Y010937D01*
X005405Y011311D01*
X005405Y011827D01*
X005720Y011827D02*
X005720Y011232D01*
X005011Y010524D01*
X005011Y010316D01*
X005011Y009196D02*
X005011Y008575D01*
X004626Y008189D01*
X006192Y010740D02*
X006192Y011134D01*
X006035Y011291D01*
X006035Y011827D01*
X006669Y009720D02*
X006669Y009051D01*
X003408Y004866D02*
X002681Y004866D01*
X002452Y004638D01*
X002846Y004441D02*
X002956Y004551D01*
X003408Y004551D01*
X002846Y004441D02*
X002846Y003531D01*
X005885Y003567D02*
X005885Y003964D01*
X006200Y003964D02*
X006355Y003964D01*
X007740Y002579D01*
X008055Y002579D01*
X008055Y001579D02*
X007874Y001579D01*
X005885Y003567D01*
X001803Y009756D02*
X001271Y009756D01*
D22*
X000484Y000504D02*
X010326Y000504D01*
X010326Y014874D01*
X000484Y014874D01*
X000484Y000504D01*
X010326Y000504D01*
X010326Y000602D02*
X000484Y000602D01*
X000484Y000701D02*
X010326Y000701D01*
X010326Y000800D02*
X008601Y000800D01*
X008587Y000786D02*
X008930Y001129D01*
X009241Y001129D01*
X009505Y001392D01*
X009505Y001765D01*
X009241Y002029D01*
X008868Y002029D01*
X008605Y001765D01*
X008605Y001454D01*
X008396Y001246D01*
X008358Y001246D01*
X008505Y001392D01*
X008505Y001765D01*
X008241Y002029D01*
X007868Y002029D01*
X007809Y001969D01*
X006214Y003564D01*
X006362Y003564D01*
X006396Y003597D01*
X007644Y002349D01*
X007648Y002349D01*
X007868Y002129D01*
X008241Y002129D01*
X008505Y002392D01*
X008505Y002765D01*
X008241Y003029D01*
X007868Y003029D01*
X007742Y002902D01*
X006585Y004059D01*
X006450Y004193D01*
X006450Y004276D01*
X006362Y004364D01*
X006038Y004364D01*
X005723Y004364D01*
X005408Y004364D01*
X005093Y004364D01*
X004778Y004364D01*
X004463Y004364D01*
X004148Y004364D01*
X003833Y004364D01*
X003746Y004276D01*
X003746Y003651D01*
X003766Y003631D01*
X003766Y002961D01*
X002703Y001899D01*
X002392Y001899D01*
X002128Y001635D01*
X002128Y001262D01*
X002392Y000999D01*
X002765Y000999D01*
X003028Y001262D01*
X003028Y001574D01*
X004081Y002626D01*
X004081Y002276D01*
X003703Y001899D01*
X003392Y001899D01*
X003128Y001635D01*
X003128Y001262D01*
X003392Y000999D01*
X003765Y000999D01*
X004028Y001262D01*
X004028Y001574D01*
X004396Y001941D01*
X004396Y001899D01*
X004392Y001899D01*
X004128Y001635D01*
X004128Y001262D01*
X004392Y000999D01*
X004765Y000999D01*
X005028Y001262D01*
X005028Y001635D01*
X004855Y001808D01*
X004855Y001846D01*
X005128Y001574D01*
X005128Y001262D01*
X005392Y000999D01*
X005765Y000999D01*
X006028Y001262D01*
X006028Y001635D01*
X005765Y001899D01*
X005454Y001899D01*
X005170Y002182D01*
X005170Y002531D01*
X006128Y001574D01*
X006128Y001262D01*
X006392Y000999D01*
X006765Y000999D01*
X007028Y001262D01*
X007028Y001635D01*
X006765Y001899D01*
X006454Y001899D01*
X005485Y002867D01*
X005485Y003248D01*
X007262Y001472D01*
X007262Y001465D01*
X007262Y001275D01*
X007616Y000920D01*
X007751Y000786D01*
X008396Y000786D01*
X008587Y000786D01*
X008699Y000898D02*
X010326Y000898D01*
X010326Y000997D02*
X008798Y000997D01*
X008896Y001095D02*
X010326Y001095D01*
X010326Y001194D02*
X009306Y001194D01*
X009405Y001292D02*
X010326Y001292D01*
X010326Y001391D02*
X009503Y001391D01*
X009505Y001489D02*
X010326Y001489D01*
X010326Y001588D02*
X009505Y001588D01*
X009505Y001686D02*
X010326Y001686D01*
X010326Y001785D02*
X009485Y001785D01*
X009386Y001884D02*
X010326Y001884D01*
X010326Y001982D02*
X009288Y001982D01*
X009241Y002129D02*
X009505Y002392D01*
X009505Y002765D01*
X009285Y002985D01*
X009285Y003052D01*
X009150Y003187D01*
X008729Y003608D01*
X008538Y003608D01*
X007941Y003608D01*
X007174Y004375D01*
X007188Y004389D01*
X007188Y004636D01*
X007881Y004636D01*
X008301Y004215D01*
X008301Y003904D01*
X008565Y003641D01*
X008938Y003641D01*
X009201Y003904D01*
X009201Y004277D01*
X008938Y004541D01*
X008627Y004541D01*
X008216Y004951D01*
X008301Y004951D01*
X008301Y004904D01*
X008565Y004641D01*
X008938Y004641D01*
X009201Y004904D01*
X009201Y005277D01*
X008938Y005541D01*
X008565Y005541D01*
X008436Y005411D01*
X008397Y005411D01*
X008627Y005641D01*
X008938Y005641D01*
X009201Y005904D01*
X009201Y006277D01*
X008938Y006541D01*
X008565Y006541D01*
X008301Y006277D01*
X008301Y005966D01*
X008062Y005726D01*
X007712Y005726D01*
X008627Y006641D01*
X008938Y006641D01*
X009201Y006904D01*
X009201Y007277D01*
X008938Y007541D01*
X008565Y007541D01*
X008470Y007445D01*
X008470Y007483D01*
X008627Y007641D01*
X008938Y007641D01*
X009201Y007904D01*
X009201Y008277D01*
X008938Y008541D01*
X008565Y008541D01*
X008301Y008277D01*
X008301Y007966D01*
X008115Y007780D01*
X008115Y008129D01*
X008627Y008641D01*
X008938Y008641D01*
X009201Y008904D01*
X009201Y009277D01*
X008938Y009541D01*
X008565Y009541D01*
X008301Y009277D01*
X008301Y008966D01*
X007655Y008320D01*
X007655Y008129D01*
X007655Y007292D01*
X007188Y006825D01*
X007188Y006918D01*
X007100Y007006D01*
X007018Y007006D01*
X007018Y007107D01*
X007052Y007141D01*
X007363Y007141D01*
X007627Y007404D01*
X007627Y007777D01*
X007363Y008041D01*
X006990Y008041D01*
X006727Y007777D01*
X006727Y007466D01*
X006693Y007432D01*
X006693Y007432D01*
X006558Y007297D01*
X006558Y007006D01*
X006476Y007006D01*
X006388Y006918D01*
X006388Y006594D01*
X006388Y006279D01*
X006388Y005964D01*
X006388Y005649D01*
X006388Y005334D01*
X006388Y005019D01*
X006388Y004704D01*
X006388Y004389D01*
X006476Y004301D01*
X006597Y004301D01*
X006693Y004206D01*
X007751Y003148D01*
X007941Y003148D01*
X008538Y003148D01*
X008763Y002923D01*
X008605Y002765D01*
X008605Y002392D01*
X008868Y002129D01*
X009241Y002129D01*
X009291Y002179D02*
X010326Y002179D01*
X010326Y002081D02*
X007697Y002081D01*
X007598Y002179D02*
X007818Y002179D01*
X007719Y002278D02*
X007500Y002278D01*
X007401Y002376D02*
X007617Y002376D01*
X007518Y002475D02*
X007303Y002475D01*
X007204Y002573D02*
X007420Y002573D01*
X007321Y002672D02*
X007106Y002672D01*
X007007Y002770D02*
X007223Y002770D01*
X007124Y002869D02*
X006908Y002869D01*
X006810Y002968D02*
X007026Y002968D01*
X006927Y003066D02*
X006711Y003066D01*
X006613Y003165D02*
X006829Y003165D01*
X006730Y003263D02*
X006514Y003263D01*
X006416Y003362D02*
X006631Y003362D01*
X006533Y003460D02*
X006317Y003460D01*
X006219Y003559D02*
X006434Y003559D01*
X006789Y003854D02*
X007044Y003854D01*
X007143Y003756D02*
X006888Y003756D01*
X006986Y003657D02*
X007241Y003657D01*
X007340Y003559D02*
X007085Y003559D01*
X007183Y003460D02*
X007438Y003460D01*
X007537Y003362D02*
X007282Y003362D01*
X007380Y003263D02*
X007636Y003263D01*
X007734Y003165D02*
X007479Y003165D01*
X007578Y003066D02*
X008620Y003066D01*
X008719Y002968D02*
X008302Y002968D01*
X008401Y002869D02*
X008709Y002869D01*
X008610Y002770D02*
X008499Y002770D01*
X008505Y002672D02*
X008605Y002672D01*
X008605Y002573D02*
X008505Y002573D01*
X008505Y002475D02*
X008605Y002475D01*
X008621Y002376D02*
X008489Y002376D01*
X008390Y002278D02*
X008719Y002278D01*
X008818Y002179D02*
X008291Y002179D01*
X008288Y001982D02*
X008822Y001982D01*
X008723Y001884D02*
X008386Y001884D01*
X008485Y001785D02*
X008625Y001785D01*
X008605Y001686D02*
X008505Y001686D01*
X008505Y001588D02*
X008605Y001588D01*
X008605Y001489D02*
X008505Y001489D01*
X008503Y001391D02*
X008542Y001391D01*
X008443Y001292D02*
X008405Y001292D01*
X007822Y001982D02*
X007795Y001982D01*
X007244Y001489D02*
X007028Y001489D01*
X007028Y001391D02*
X007262Y001391D01*
X007262Y001292D02*
X007028Y001292D01*
X006960Y001194D02*
X007343Y001194D01*
X007441Y001095D02*
X006861Y001095D01*
X007028Y001588D02*
X007145Y001588D01*
X007047Y001686D02*
X006977Y001686D01*
X006948Y001785D02*
X006878Y001785D01*
X006850Y001884D02*
X006780Y001884D01*
X006751Y001982D02*
X006370Y001982D01*
X006272Y002081D02*
X006653Y002081D01*
X006554Y002179D02*
X006173Y002179D01*
X006075Y002278D02*
X006456Y002278D01*
X006357Y002376D02*
X005976Y002376D01*
X005877Y002475D02*
X006259Y002475D01*
X006160Y002573D02*
X005779Y002573D01*
X005680Y002672D02*
X006061Y002672D01*
X005963Y002770D02*
X005582Y002770D01*
X005485Y002869D02*
X005864Y002869D01*
X005766Y002968D02*
X005485Y002968D01*
X005485Y003066D02*
X005667Y003066D01*
X005569Y003165D02*
X005485Y003165D01*
X005227Y002475D02*
X005170Y002475D01*
X005170Y002376D02*
X005326Y002376D01*
X005424Y002278D02*
X005170Y002278D01*
X005173Y002179D02*
X005523Y002179D01*
X005621Y002081D02*
X005272Y002081D01*
X005370Y001982D02*
X005720Y001982D01*
X005780Y001884D02*
X005818Y001884D01*
X005878Y001785D02*
X005917Y001785D01*
X005977Y001686D02*
X006015Y001686D01*
X006028Y001588D02*
X006114Y001588D01*
X006128Y001489D02*
X006028Y001489D01*
X006028Y001391D02*
X006128Y001391D01*
X006128Y001292D02*
X006028Y001292D01*
X005960Y001194D02*
X006197Y001194D01*
X006295Y001095D02*
X005861Y001095D01*
X005295Y001095D02*
X004861Y001095D01*
X004960Y001194D02*
X005197Y001194D01*
X005128Y001292D02*
X005028Y001292D01*
X005028Y001391D02*
X005128Y001391D01*
X005128Y001489D02*
X005028Y001489D01*
X005028Y001588D02*
X005114Y001588D01*
X005015Y001686D02*
X004977Y001686D01*
X004917Y001785D02*
X004878Y001785D01*
X004377Y001884D02*
X004338Y001884D01*
X004278Y001785D02*
X004240Y001785D01*
X004180Y001686D02*
X004141Y001686D01*
X004128Y001588D02*
X004043Y001588D01*
X004028Y001489D02*
X004128Y001489D01*
X004128Y001391D02*
X004028Y001391D01*
X004028Y001292D02*
X004128Y001292D01*
X004197Y001194D02*
X003960Y001194D01*
X003861Y001095D02*
X004295Y001095D01*
X003786Y001982D02*
X003437Y001982D01*
X003377Y001884D02*
X003338Y001884D01*
X003278Y001785D02*
X003240Y001785D01*
X003180Y001686D02*
X003141Y001686D01*
X003128Y001588D02*
X003043Y001588D01*
X003028Y001489D02*
X003128Y001489D01*
X003128Y001391D02*
X003028Y001391D01*
X003028Y001292D02*
X003128Y001292D01*
X003197Y001194D02*
X002960Y001194D01*
X002861Y001095D02*
X003295Y001095D01*
X003535Y002081D02*
X003885Y002081D01*
X003983Y002179D02*
X003634Y002179D01*
X003732Y002278D02*
X004081Y002278D01*
X004081Y002376D02*
X003831Y002376D01*
X003929Y002475D02*
X004081Y002475D01*
X004081Y002573D02*
X004028Y002573D01*
X003673Y002869D02*
X002509Y002869D01*
X002607Y002968D02*
X003766Y002968D01*
X003766Y003066D02*
X002706Y003066D01*
X002804Y003165D02*
X003766Y003165D01*
X003766Y003263D02*
X002903Y003263D01*
X003001Y003362D02*
X003766Y003362D01*
X003766Y003460D02*
X003076Y003460D01*
X003076Y003436D02*
X003076Y003627D01*
X003076Y004321D01*
X003096Y004301D01*
X003720Y004301D01*
X003808Y004389D01*
X003808Y004713D01*
X003808Y005028D01*
X003808Y005343D01*
X003808Y005581D01*
X004114Y005581D01*
X004249Y005716D01*
X004454Y005920D01*
X004454Y006111D01*
X004454Y006376D01*
X005310Y006376D01*
X005500Y006376D01*
X005666Y006542D01*
X005800Y006676D01*
X005800Y006944D01*
X006047Y006944D01*
X006362Y006944D01*
X006450Y007031D01*
X006450Y007656D01*
X006430Y007676D01*
X006430Y007700D01*
X008468Y009738D01*
X008565Y009641D01*
X008938Y009641D01*
X009201Y009904D01*
X009201Y010277D01*
X008938Y010541D01*
X008565Y010541D01*
X008430Y010406D01*
X008430Y010448D01*
X008623Y010641D01*
X008938Y010641D01*
X009201Y010904D01*
X009201Y011277D01*
X008938Y011541D01*
X008565Y011541D01*
X008301Y011277D01*
X008301Y010970D01*
X008105Y010773D01*
X007970Y010639D01*
X007970Y010635D01*
X007812Y010793D01*
X007519Y010500D01*
X007448Y010571D01*
X007378Y010500D01*
X007056Y010821D01*
X006855Y010620D01*
X006835Y010586D01*
X006825Y010548D01*
X006825Y010508D01*
X006835Y010470D01*
X006855Y010436D01*
X007084Y010206D01*
X007378Y010500D01*
X007448Y010429D01*
X007155Y010136D01*
X007384Y009907D01*
X007418Y009887D01*
X007456Y009877D01*
X007496Y009877D01*
X007534Y009887D01*
X007568Y009907D01*
X007770Y010108D01*
X007448Y010429D01*
X007519Y010500D01*
X007840Y010179D01*
X007970Y010309D01*
X007970Y010284D01*
X006899Y009213D01*
X006899Y009237D01*
X007292Y009630D01*
X007292Y009755D01*
X006703Y010344D01*
X006579Y010344D01*
X006046Y009810D01*
X006046Y009686D01*
X006439Y009293D01*
X006439Y009146D01*
X005475Y008183D01*
X005340Y008048D01*
X005340Y007744D01*
X005256Y007744D01*
X005256Y007344D01*
X005255Y007344D01*
X005255Y007744D01*
X005170Y007744D01*
X005170Y008015D01*
X005832Y008676D01*
X005832Y008867D01*
X005832Y009654D01*
X005697Y009789D01*
X005635Y009851D01*
X005516Y009970D01*
X005516Y010693D01*
X005511Y010698D01*
X005907Y011094D01*
X005962Y011039D01*
X005962Y011030D01*
X005825Y010892D01*
X005825Y010588D01*
X006040Y010372D01*
X006345Y010372D01*
X006560Y010588D01*
X006560Y010892D01*
X006422Y011030D01*
X006422Y011229D01*
X006288Y011364D01*
X006283Y011368D01*
X006283Y012342D01*
X006196Y012429D01*
X005881Y012429D01*
X005566Y012429D01*
X005251Y012429D01*
X004929Y012429D01*
X004922Y012422D01*
X004893Y012429D01*
X004775Y012429D01*
X004657Y012429D01*
X004619Y012419D01*
X004585Y012400D01*
X004557Y012372D01*
X004537Y012337D01*
X004527Y012299D01*
X004527Y011827D01*
X004775Y011827D01*
X004775Y012429D01*
X004775Y011827D01*
X004775Y011827D01*
X004775Y011827D01*
X004527Y011827D01*
X004527Y011354D01*
X004537Y011316D01*
X004557Y011282D01*
X004585Y011254D01*
X004619Y011234D01*
X004657Y011224D01*
X004775Y011224D01*
X004775Y011826D01*
X004775Y011826D01*
X004775Y011224D01*
X004893Y011224D01*
X004922Y011232D01*
X004929Y011224D01*
X004993Y011224D01*
X004936Y011167D01*
X004471Y011167D01*
X004464Y011174D01*
X003630Y011174D01*
X003542Y011087D01*
X003542Y010332D01*
X003630Y010244D01*
X004464Y010244D01*
X004506Y010287D01*
X004506Y010012D01*
X004464Y010055D01*
X003630Y010055D01*
X003542Y009967D01*
X003542Y009779D01*
X003059Y010262D01*
X003059Y010573D01*
X002795Y010836D01*
X002423Y010836D01*
X002159Y010573D01*
X002159Y010200D01*
X002423Y009937D01*
X002734Y009937D01*
X003207Y009464D01*
X003207Y008283D01*
X003341Y008148D01*
X003341Y008148D01*
X003766Y007724D01*
X003766Y007676D01*
X003746Y007656D01*
X003746Y007031D01*
X003766Y007011D01*
X003766Y006960D01*
X003720Y007006D01*
X003638Y007006D01*
X003638Y007321D01*
X003503Y007455D01*
X002682Y008276D01*
X002682Y008425D01*
X002987Y008425D01*
X003075Y008513D01*
X003075Y009306D01*
X002987Y009394D01*
X002490Y009394D01*
X001898Y009986D01*
X001775Y009986D01*
X001775Y010133D01*
X001688Y010221D01*
X000855Y010221D01*
X000767Y010133D01*
X000767Y009379D01*
X000855Y009291D01*
X001688Y009291D01*
X001775Y009379D01*
X001775Y009458D01*
X001879Y009355D01*
X001830Y009306D01*
X001830Y008513D01*
X001918Y008425D01*
X002222Y008425D01*
X002222Y008276D01*
X002222Y008086D01*
X003178Y007130D01*
X003178Y007006D01*
X003096Y007006D01*
X003075Y006985D01*
X003075Y007062D01*
X002987Y007150D01*
X001918Y007150D01*
X001830Y007062D01*
X001830Y006876D01*
X001775Y006876D01*
X001775Y007023D01*
X001688Y007111D01*
X000855Y007111D01*
X000767Y007023D01*
X000767Y006269D01*
X000855Y006181D01*
X001688Y006181D01*
X001775Y006269D01*
X001775Y006416D01*
X001830Y006416D01*
X001830Y006269D01*
X001918Y006181D01*
X002987Y006181D01*
X003008Y006202D01*
X003008Y006126D01*
X003408Y006126D01*
X003808Y006126D01*
X003808Y006246D01*
X003801Y006272D01*
X003808Y006279D01*
X003808Y006603D01*
X003808Y006914D01*
X003900Y006821D01*
X003994Y006728D01*
X003994Y006702D01*
X003994Y006511D01*
X003994Y006111D01*
X003924Y006041D01*
X003808Y006041D01*
X003808Y006126D01*
X003408Y006126D01*
X003408Y006126D01*
X003408Y006126D01*
X003008Y006126D01*
X003008Y006006D01*
X003015Y005980D01*
X003008Y005973D01*
X003008Y005726D01*
X002312Y005726D01*
X002312Y005734D01*
X002048Y005997D01*
X001675Y005997D01*
X001412Y005734D01*
X001412Y005361D01*
X001675Y005097D01*
X002048Y005097D01*
X002217Y005266D01*
X002255Y005266D01*
X001986Y004997D01*
X001675Y004997D01*
X001412Y004734D01*
X001412Y004361D01*
X001675Y004097D01*
X002048Y004097D01*
X002222Y004271D01*
X002222Y004233D01*
X001986Y003997D01*
X001675Y003997D01*
X001412Y003734D01*
X001412Y003361D01*
X001675Y003097D01*
X002048Y003097D01*
X002312Y003361D01*
X002312Y003672D01*
X002616Y003976D01*
X002616Y003627D01*
X001986Y002997D01*
X001675Y002997D01*
X001412Y002734D01*
X001412Y002361D01*
X001675Y002097D01*
X002048Y002097D01*
X002312Y002361D01*
X002312Y002672D01*
X003476Y002672D01*
X003378Y002573D02*
X002312Y002573D01*
X002312Y002475D02*
X003279Y002475D01*
X003180Y002376D02*
X002312Y002376D01*
X002229Y002278D02*
X003082Y002278D01*
X002983Y002179D02*
X002130Y002179D01*
X002377Y001884D02*
X000484Y001884D01*
X000484Y001982D02*
X002786Y001982D01*
X002885Y002081D02*
X000484Y002081D01*
X000484Y002179D02*
X001593Y002179D01*
X001495Y002278D02*
X000484Y002278D01*
X000484Y002376D02*
X001412Y002376D01*
X001412Y002475D02*
X000484Y002475D01*
X000484Y002573D02*
X001412Y002573D01*
X001412Y002672D02*
X000484Y002672D01*
X000484Y002770D02*
X001449Y002770D01*
X001547Y002869D02*
X000484Y002869D01*
X000484Y002968D02*
X001646Y002968D01*
X001608Y003165D02*
X000484Y003165D01*
X000484Y003263D02*
X001509Y003263D01*
X001412Y003362D02*
X000484Y003362D01*
X000484Y003460D02*
X001412Y003460D01*
X001412Y003559D02*
X000484Y003559D01*
X000484Y003657D02*
X001412Y003657D01*
X001434Y003756D02*
X000484Y003756D01*
X000484Y003854D02*
X001533Y003854D01*
X001631Y003953D02*
X000484Y003953D01*
X000484Y004051D02*
X002041Y004051D01*
X002101Y004150D02*
X002139Y004150D01*
X002199Y004249D02*
X002222Y004249D01*
X002494Y003854D02*
X002616Y003854D01*
X002616Y003756D02*
X002396Y003756D01*
X002312Y003657D02*
X002616Y003657D01*
X002548Y003559D02*
X002312Y003559D01*
X002312Y003460D02*
X002450Y003460D01*
X002351Y003362D02*
X002312Y003362D01*
X002252Y003263D02*
X002214Y003263D01*
X002154Y003165D02*
X002115Y003165D01*
X002055Y003066D02*
X000484Y003066D01*
X000484Y004150D02*
X001623Y004150D01*
X001524Y004249D02*
X000484Y004249D01*
X000484Y004347D02*
X001425Y004347D01*
X001412Y004446D02*
X000484Y004446D01*
X000484Y004544D02*
X001412Y004544D01*
X001412Y004643D02*
X000484Y004643D01*
X000484Y004741D02*
X001419Y004741D01*
X001518Y004840D02*
X000484Y004840D01*
X000484Y004938D02*
X001616Y004938D01*
X001637Y005135D02*
X000484Y005135D01*
X000484Y005037D02*
X002026Y005037D01*
X002086Y005135D02*
X002125Y005135D01*
X002185Y005234D02*
X002223Y005234D01*
X002312Y005727D02*
X003008Y005727D01*
X003008Y005825D02*
X002220Y005825D01*
X002121Y005924D02*
X003008Y005924D01*
X003008Y006022D02*
X000484Y006022D01*
X000484Y005924D02*
X001602Y005924D01*
X001503Y005825D02*
X000484Y005825D01*
X000484Y005727D02*
X001412Y005727D01*
X001412Y005628D02*
X000484Y005628D01*
X000484Y005530D02*
X001412Y005530D01*
X001412Y005431D02*
X000484Y005431D01*
X000484Y005333D02*
X001440Y005333D01*
X001539Y005234D02*
X000484Y005234D01*
X000484Y006121D02*
X003008Y006121D01*
X003075Y007008D02*
X003178Y007008D01*
X003178Y007106D02*
X003030Y007106D01*
X003103Y007205D02*
X000484Y007205D01*
X000484Y007303D02*
X000841Y007303D01*
X000825Y007313D02*
X000859Y007293D01*
X000897Y007283D01*
X001221Y007283D01*
X001221Y007698D01*
X000767Y007698D01*
X000767Y007413D01*
X000777Y007375D01*
X000797Y007341D01*
X000825Y007313D01*
X000770Y007402D02*
X000484Y007402D01*
X000484Y007501D02*
X000767Y007501D01*
X000767Y007599D02*
X000484Y007599D01*
X000484Y007698D02*
X000767Y007698D01*
X000767Y007798D02*
X001221Y007798D01*
X001221Y007698D01*
X001321Y007698D01*
X001321Y007283D01*
X001645Y007283D01*
X001683Y007293D01*
X001718Y007313D01*
X001746Y007341D01*
X001765Y007375D01*
X001775Y007413D01*
X001775Y007698D01*
X001321Y007698D01*
X001321Y007798D01*
X001221Y007798D01*
X001221Y008189D01*
X001221Y008603D01*
X001321Y008603D01*
X001321Y008189D01*
X001321Y007798D01*
X001775Y007798D01*
X001775Y008083D01*
X001765Y008121D01*
X001746Y008155D01*
X001718Y008183D01*
X001687Y008201D01*
X001718Y008219D01*
X001746Y008246D01*
X001765Y008281D01*
X001775Y008319D01*
X001775Y008604D01*
X001321Y008604D01*
X001321Y008703D01*
X001775Y008703D01*
X001775Y008988D01*
X001765Y009026D01*
X001746Y009061D01*
X001718Y009089D01*
X001683Y009108D01*
X001645Y009118D01*
X001321Y009118D01*
X001321Y008704D01*
X001221Y008704D01*
X001221Y009118D01*
X000897Y009118D01*
X000859Y009108D01*
X000825Y009089D01*
X000797Y009061D01*
X000777Y009026D01*
X000767Y008988D01*
X000767Y008703D01*
X001221Y008703D01*
X001221Y008604D01*
X000767Y008604D01*
X000767Y008319D01*
X000777Y008281D01*
X000797Y008246D01*
X000825Y008219D01*
X000856Y008201D01*
X000825Y008183D01*
X000797Y008155D01*
X000777Y008121D01*
X000767Y008083D01*
X000767Y007798D01*
X000767Y007895D02*
X000484Y007895D01*
X000484Y007993D02*
X000767Y007993D01*
X000769Y008092D02*
X000484Y008092D01*
X000484Y008190D02*
X000837Y008190D01*
X000775Y008289D02*
X000484Y008289D01*
X000484Y008387D02*
X000767Y008387D01*
X000767Y008486D02*
X000484Y008486D01*
X000484Y008584D02*
X000767Y008584D01*
X000767Y008782D02*
X000484Y008782D01*
X000484Y008880D02*
X000767Y008880D01*
X000767Y008979D02*
X000484Y008979D01*
X000484Y009077D02*
X000813Y009077D01*
X000773Y009373D02*
X000484Y009373D01*
X000484Y009471D02*
X000767Y009471D01*
X000767Y009570D02*
X000484Y009570D01*
X000484Y009668D02*
X000767Y009668D01*
X000767Y009767D02*
X000484Y009767D01*
X000484Y009866D02*
X000767Y009866D01*
X000767Y009964D02*
X000484Y009964D01*
X000484Y010063D02*
X000767Y010063D01*
X000795Y010161D02*
X000484Y010161D01*
X000484Y010260D02*
X002159Y010260D01*
X002159Y010358D02*
X000484Y010358D01*
X000484Y010457D02*
X002159Y010457D01*
X002159Y010555D02*
X000484Y010555D01*
X000484Y010654D02*
X001705Y010654D01*
X001715Y010644D02*
X002088Y010644D01*
X002185Y010740D01*
X001902Y011023D01*
X001973Y011094D01*
X001902Y011164D01*
X002185Y011447D01*
X002088Y011544D01*
X001715Y011544D01*
X001619Y011447D01*
X001902Y011164D01*
X001831Y011094D01*
X001548Y011376D01*
X001452Y011280D01*
X001452Y010907D01*
X001548Y010811D01*
X001831Y011094D01*
X001902Y011023D01*
X001619Y010740D01*
X001715Y010644D01*
X001631Y010752D02*
X000484Y010752D01*
X000484Y010851D02*
X001508Y010851D01*
X001588Y010851D02*
X001730Y010851D01*
X001687Y010950D02*
X001828Y010950D01*
X001786Y011048D02*
X001877Y011048D01*
X001927Y011048D02*
X002018Y011048D01*
X001973Y011094D02*
X002255Y010811D01*
X002352Y010907D01*
X002352Y011280D01*
X002255Y011376D01*
X001973Y011094D01*
X001920Y011147D02*
X002025Y011147D01*
X001983Y011245D02*
X002124Y011245D01*
X002081Y011344D02*
X002223Y011344D01*
X002288Y011344D02*
X003109Y011344D01*
X003109Y011315D02*
X003120Y011277D01*
X003139Y011243D01*
X003167Y011215D01*
X003201Y011195D01*
X003240Y011185D01*
X003603Y011185D01*
X003603Y011777D01*
X003109Y011777D01*
X003109Y011315D01*
X003138Y011245D02*
X002352Y011245D01*
X002352Y011147D02*
X003602Y011147D01*
X003603Y011245D02*
X003703Y011245D01*
X003703Y011185D02*
X004066Y011185D01*
X004105Y011195D01*
X004139Y011215D01*
X004167Y011243D01*
X004186Y011277D01*
X004197Y011315D01*
X004197Y011777D01*
X003703Y011777D01*
X003703Y011877D01*
X003603Y011877D01*
X003603Y012469D01*
X003240Y012469D01*
X003201Y012459D01*
X003167Y012439D01*
X003139Y012411D01*
X003120Y012377D01*
X003109Y012339D01*
X003109Y011877D01*
X003603Y011877D01*
X003603Y011777D01*
X003703Y011777D01*
X003703Y011185D01*
X003703Y011344D02*
X003603Y011344D01*
X003603Y011442D02*
X003703Y011442D01*
X003703Y011541D02*
X003603Y011541D01*
X003603Y011639D02*
X003703Y011639D01*
X003703Y011738D02*
X003603Y011738D01*
X003603Y011836D02*
X000484Y011836D01*
X000484Y011738D02*
X003109Y011738D01*
X003109Y011639D02*
X000484Y011639D01*
X000484Y011541D02*
X001713Y011541D01*
X001624Y011442D02*
X000484Y011442D01*
X000484Y011344D02*
X001516Y011344D01*
X001581Y011344D02*
X001722Y011344D01*
X001680Y011245D02*
X001821Y011245D01*
X001778Y011147D02*
X001884Y011147D01*
X001975Y010950D02*
X002117Y010950D01*
X002074Y010851D02*
X002215Y010851D01*
X002295Y010851D02*
X003542Y010851D01*
X003542Y010752D02*
X002879Y010752D01*
X002978Y010654D02*
X003542Y010654D01*
X003542Y010555D02*
X003059Y010555D01*
X003059Y010457D02*
X003542Y010457D01*
X003542Y010358D02*
X003059Y010358D01*
X003061Y010260D02*
X003614Y010260D01*
X003542Y009964D02*
X003357Y009964D01*
X003455Y009866D02*
X003542Y009866D01*
X003258Y010063D02*
X004506Y010063D01*
X004506Y010161D02*
X003160Y010161D01*
X002903Y009767D02*
X002117Y009767D01*
X002215Y009668D02*
X003002Y009668D01*
X003100Y009570D02*
X002314Y009570D01*
X002412Y009471D02*
X003199Y009471D01*
X003207Y009373D02*
X003008Y009373D01*
X003075Y009274D02*
X003207Y009274D01*
X003207Y009176D02*
X003075Y009176D01*
X003075Y009077D02*
X003207Y009077D01*
X003207Y008979D02*
X003075Y008979D01*
X003075Y008880D02*
X003207Y008880D01*
X003207Y008782D02*
X003075Y008782D01*
X003075Y008683D02*
X003207Y008683D01*
X003207Y008584D02*
X003075Y008584D01*
X003048Y008486D02*
X003207Y008486D01*
X003207Y008387D02*
X002682Y008387D01*
X002682Y008289D02*
X003207Y008289D01*
X003299Y008190D02*
X002768Y008190D01*
X002867Y008092D02*
X003397Y008092D01*
X003496Y007993D02*
X002965Y007993D01*
X003064Y007895D02*
X003595Y007895D01*
X003693Y007796D02*
X003162Y007796D01*
X003261Y007698D02*
X003766Y007698D01*
X003746Y007599D02*
X003360Y007599D01*
X003458Y007501D02*
X003746Y007501D01*
X003746Y007402D02*
X003557Y007402D01*
X003638Y007303D02*
X003746Y007303D01*
X003746Y007205D02*
X003638Y007205D01*
X003638Y007106D02*
X003746Y007106D01*
X003766Y007008D02*
X003638Y007008D01*
X003808Y006909D02*
X003812Y006909D01*
X003808Y006811D02*
X003911Y006811D01*
X003994Y006712D02*
X003808Y006712D01*
X003808Y006614D02*
X003994Y006614D01*
X003994Y006515D02*
X003808Y006515D01*
X003808Y006417D02*
X003994Y006417D01*
X003994Y006318D02*
X003808Y006318D01*
X003808Y006219D02*
X003994Y006219D01*
X003994Y006121D02*
X003808Y006121D01*
X003808Y005530D02*
X006388Y005530D01*
X006388Y005628D02*
X004162Y005628D01*
X004260Y005727D02*
X006388Y005727D01*
X006388Y005825D02*
X004359Y005825D01*
X004454Y005924D02*
X006388Y005924D01*
X006388Y006022D02*
X004454Y006022D01*
X004454Y006121D02*
X006388Y006121D01*
X006388Y006219D02*
X004454Y006219D01*
X004454Y006318D02*
X006388Y006318D01*
X006388Y006417D02*
X005541Y006417D01*
X005639Y006515D02*
X006388Y006515D01*
X006388Y006614D02*
X005738Y006614D01*
X005800Y006712D02*
X006388Y006712D01*
X006388Y006811D02*
X005800Y006811D01*
X005800Y006909D02*
X006388Y006909D01*
X006427Y007008D02*
X006558Y007008D01*
X006558Y007106D02*
X006450Y007106D01*
X006450Y007205D02*
X006558Y007205D01*
X006564Y007303D02*
X006450Y007303D01*
X006450Y007402D02*
X006663Y007402D01*
X006727Y007501D02*
X006450Y007501D01*
X006450Y007599D02*
X006727Y007599D01*
X006727Y007698D02*
X006430Y007698D01*
X006526Y007796D02*
X006746Y007796D01*
X006844Y007895D02*
X006625Y007895D01*
X006723Y007993D02*
X006943Y007993D01*
X006822Y008092D02*
X007655Y008092D01*
X007655Y008190D02*
X006921Y008190D01*
X007019Y008289D02*
X007655Y008289D01*
X007723Y008387D02*
X007118Y008387D01*
X007216Y008486D02*
X007822Y008486D01*
X007920Y008584D02*
X007315Y008584D01*
X007413Y008683D02*
X008019Y008683D01*
X008117Y008782D02*
X007512Y008782D01*
X007610Y008880D02*
X008216Y008880D01*
X008301Y008979D02*
X007709Y008979D01*
X007807Y009077D02*
X008301Y009077D01*
X008301Y009176D02*
X007906Y009176D01*
X008005Y009274D02*
X008301Y009274D01*
X008397Y009373D02*
X008103Y009373D01*
X008202Y009471D02*
X008496Y009471D01*
X008537Y009668D02*
X008399Y009668D01*
X008300Y009570D02*
X010326Y009570D01*
X010326Y009668D02*
X008966Y009668D01*
X009064Y009767D02*
X010326Y009767D01*
X010326Y009866D02*
X009163Y009866D01*
X009201Y009964D02*
X010326Y009964D01*
X010326Y010063D02*
X009201Y010063D01*
X009201Y010161D02*
X010326Y010161D01*
X010326Y010260D02*
X009201Y010260D01*
X009120Y010358D02*
X010326Y010358D01*
X010326Y010457D02*
X009022Y010457D01*
X008951Y010654D02*
X010326Y010654D01*
X010326Y010752D02*
X009050Y010752D01*
X009148Y010851D02*
X010326Y010851D01*
X010326Y010950D02*
X009201Y010950D01*
X009201Y011048D02*
X010326Y011048D01*
X010326Y011147D02*
X009201Y011147D01*
X009201Y011245D02*
X010326Y011245D01*
X010326Y011344D02*
X009135Y011344D01*
X009036Y011442D02*
X010326Y011442D01*
X010326Y011541D02*
X007701Y011541D01*
X007701Y011639D02*
X010326Y011639D01*
X010326Y011738D02*
X007701Y011738D01*
X007701Y011777D02*
X007207Y011777D01*
X007207Y011877D01*
X007107Y011877D01*
X007107Y012469D01*
X006744Y012469D01*
X006705Y012459D01*
X006671Y012439D01*
X006643Y012411D01*
X006624Y012377D01*
X006613Y012339D01*
X006613Y011877D01*
X007107Y011877D01*
X007107Y011777D01*
X006613Y011777D01*
X006613Y011315D01*
X006624Y011277D01*
X006643Y011243D01*
X006671Y011215D01*
X006705Y011195D01*
X006744Y011185D01*
X007107Y011185D01*
X007107Y011777D01*
X007207Y011777D01*
X007207Y011185D01*
X007570Y011185D01*
X007609Y011195D01*
X007643Y011215D01*
X007671Y011243D01*
X007690Y011277D01*
X007701Y011315D01*
X007701Y011777D01*
X007701Y011877D02*
X007701Y012339D01*
X007690Y012377D01*
X007671Y012411D01*
X007643Y012439D01*
X007609Y012459D01*
X007570Y012469D01*
X007207Y012469D01*
X007207Y011877D01*
X007701Y011877D01*
X007701Y011935D02*
X010326Y011935D01*
X010326Y012034D02*
X007701Y012034D01*
X007701Y012132D02*
X009171Y012132D01*
X009187Y012126D02*
X009497Y012126D01*
X009784Y012244D01*
X010003Y012464D01*
X010122Y012750D01*
X010122Y013061D01*
X010003Y013347D01*
X009784Y013567D01*
X009497Y013685D01*
X009187Y013685D01*
X008900Y013567D01*
X008681Y013347D01*
X008562Y013061D01*
X008562Y012750D01*
X008681Y012464D01*
X008900Y012244D01*
X009187Y012126D01*
X008933Y012231D02*
X007701Y012231D01*
X007701Y012329D02*
X008815Y012329D01*
X008717Y012428D02*
X007654Y012428D01*
X007207Y012428D02*
X007107Y012428D01*
X007107Y012329D02*
X007207Y012329D01*
X007207Y012231D02*
X007107Y012231D01*
X007107Y012132D02*
X007207Y012132D01*
X007207Y012034D02*
X007107Y012034D01*
X007107Y011935D02*
X007207Y011935D01*
X007207Y011836D02*
X010326Y011836D01*
X010326Y012132D02*
X009513Y012132D01*
X009751Y012231D02*
X010326Y012231D01*
X010326Y012329D02*
X009869Y012329D01*
X009967Y012428D02*
X010326Y012428D01*
X010326Y012526D02*
X010029Y012526D01*
X010070Y012625D02*
X010326Y012625D01*
X010326Y012723D02*
X010111Y012723D01*
X010122Y012822D02*
X010326Y012822D01*
X010326Y012920D02*
X010122Y012920D01*
X010122Y013019D02*
X010326Y013019D01*
X010326Y013117D02*
X010098Y013117D01*
X010058Y013216D02*
X010326Y013216D01*
X010326Y013315D02*
X010017Y013315D01*
X009937Y013413D02*
X010326Y013413D01*
X010326Y013512D02*
X009839Y013512D01*
X009679Y013610D02*
X010326Y013610D01*
X010326Y013709D02*
X007701Y013709D01*
X007701Y013618D02*
X007701Y013942D01*
X007207Y013942D01*
X007207Y013488D01*
X007570Y013488D01*
X007609Y013498D01*
X007643Y013518D01*
X007671Y013546D01*
X007690Y013580D01*
X007701Y013618D01*
X007699Y013610D02*
X009005Y013610D01*
X008845Y013512D02*
X007632Y013512D01*
X007701Y013807D02*
X010326Y013807D01*
X010326Y013906D02*
X007701Y013906D01*
X007701Y014042D02*
X007701Y014366D01*
X007690Y014404D01*
X007671Y014439D01*
X007643Y014466D01*
X007609Y014486D01*
X007570Y014496D01*
X007207Y014496D01*
X007207Y014042D01*
X007701Y014042D01*
X007701Y014103D02*
X010326Y014103D01*
X010326Y014201D02*
X007701Y014201D01*
X007701Y014300D02*
X010326Y014300D01*
X010326Y014399D02*
X007692Y014399D01*
X007207Y014399D02*
X007107Y014399D01*
X007107Y014496D02*
X006744Y014496D01*
X006705Y014486D01*
X006671Y014466D01*
X006643Y014439D01*
X006624Y014404D01*
X006613Y014366D01*
X006613Y014042D01*
X007107Y014042D01*
X007107Y013942D01*
X007207Y013942D01*
X007207Y014042D01*
X007107Y014042D01*
X007107Y014496D01*
X007107Y014300D02*
X007207Y014300D01*
X007207Y014201D02*
X007107Y014201D01*
X007107Y014103D02*
X007207Y014103D01*
X007207Y014004D02*
X010326Y014004D01*
X010326Y014497D02*
X000484Y014497D01*
X000484Y014399D02*
X003118Y014399D01*
X003120Y014404D02*
X003109Y014366D01*
X003109Y014042D01*
X003603Y014042D01*
X003603Y013942D01*
X003703Y013942D01*
X003703Y013488D01*
X004066Y013488D01*
X004105Y013498D01*
X004139Y013518D01*
X004167Y013546D01*
X004186Y013580D01*
X004197Y013618D01*
X004197Y013942D01*
X003703Y013942D01*
X003703Y014042D01*
X004197Y014042D01*
X004197Y014366D01*
X004186Y014404D01*
X004167Y014439D01*
X004139Y014466D01*
X004105Y014486D01*
X004066Y014496D01*
X003703Y014496D01*
X003703Y014042D01*
X003603Y014042D01*
X003603Y014496D01*
X003240Y014496D01*
X003201Y014486D01*
X003167Y014466D01*
X003139Y014439D01*
X003120Y014404D01*
X003109Y014300D02*
X000484Y014300D01*
X000484Y014201D02*
X003109Y014201D01*
X003109Y014103D02*
X000484Y014103D01*
X000484Y014004D02*
X003603Y014004D01*
X003603Y013942D02*
X003109Y013942D01*
X003109Y013618D01*
X003120Y013580D01*
X003139Y013546D01*
X003167Y013518D01*
X003201Y013498D01*
X003240Y013488D01*
X003603Y013488D01*
X003603Y013942D01*
X003603Y013906D02*
X003703Y013906D01*
X003703Y014004D02*
X007107Y014004D01*
X007107Y013942D02*
X006613Y013942D01*
X006613Y013618D01*
X006624Y013580D01*
X006643Y013546D01*
X006671Y013518D01*
X006705Y013498D01*
X006744Y013488D01*
X007107Y013488D01*
X007107Y013942D01*
X007107Y013906D02*
X007207Y013906D01*
X007207Y013807D02*
X007107Y013807D01*
X007107Y013709D02*
X007207Y013709D01*
X007207Y013610D02*
X007107Y013610D01*
X007107Y013512D02*
X007207Y013512D01*
X006682Y013512D02*
X004128Y013512D01*
X004195Y013610D02*
X006615Y013610D01*
X006613Y013709D02*
X004197Y013709D01*
X004197Y013807D02*
X006613Y013807D01*
X006613Y013906D02*
X004197Y013906D01*
X004197Y014103D02*
X006613Y014103D01*
X006613Y014201D02*
X004197Y014201D01*
X004197Y014300D02*
X006613Y014300D01*
X006622Y014399D02*
X004188Y014399D01*
X003703Y014399D02*
X003603Y014399D01*
X003603Y014300D02*
X003703Y014300D01*
X003703Y014201D02*
X003603Y014201D01*
X003603Y014103D02*
X003703Y014103D01*
X003703Y013807D02*
X003603Y013807D01*
X003603Y013709D02*
X003703Y013709D01*
X003703Y013610D02*
X003603Y013610D01*
X003603Y013512D02*
X003703Y013512D01*
X003178Y013512D02*
X001965Y013512D01*
X001910Y013567D02*
X001623Y013685D01*
X001313Y013685D01*
X001026Y013567D01*
X000807Y013347D01*
X000688Y013061D01*
X000688Y012750D01*
X000807Y012464D01*
X001026Y012244D01*
X001313Y012126D01*
X001623Y012126D01*
X001910Y012244D01*
X002129Y012464D01*
X002248Y012750D01*
X002248Y013061D01*
X002129Y013347D01*
X001910Y013567D01*
X001805Y013610D02*
X003111Y013610D01*
X003109Y013709D02*
X000484Y013709D01*
X000484Y013807D02*
X003109Y013807D01*
X003109Y013906D02*
X000484Y013906D01*
X000484Y013610D02*
X001131Y013610D01*
X000971Y013512D02*
X000484Y013512D01*
X000484Y013413D02*
X000873Y013413D01*
X000793Y013315D02*
X000484Y013315D01*
X000484Y013216D02*
X000752Y013216D01*
X000712Y013117D02*
X000484Y013117D01*
X000484Y013019D02*
X000688Y013019D01*
X000688Y012920D02*
X000484Y012920D01*
X000484Y012822D02*
X000688Y012822D01*
X000699Y012723D02*
X000484Y012723D01*
X000484Y012625D02*
X000740Y012625D01*
X000781Y012526D02*
X000484Y012526D01*
X000484Y012428D02*
X000843Y012428D01*
X000941Y012329D02*
X000484Y012329D01*
X000484Y012231D02*
X001059Y012231D01*
X001297Y012132D02*
X000484Y012132D01*
X000484Y012034D02*
X003109Y012034D01*
X003109Y012132D02*
X001639Y012132D01*
X001877Y012231D02*
X003109Y012231D01*
X003109Y012329D02*
X001995Y012329D01*
X002093Y012428D02*
X003156Y012428D01*
X003109Y011935D02*
X000484Y011935D01*
X000484Y011245D02*
X001452Y011245D01*
X001452Y011147D02*
X000484Y011147D01*
X000484Y011048D02*
X001452Y011048D01*
X001452Y010950D02*
X000484Y010950D01*
X000484Y009274D02*
X001830Y009274D01*
X001830Y009176D02*
X000484Y009176D01*
X000484Y008683D02*
X001221Y008683D01*
X001221Y008584D02*
X001321Y008584D01*
X001321Y008486D02*
X001221Y008486D01*
X001221Y008387D02*
X001321Y008387D01*
X001321Y008289D02*
X001221Y008289D01*
X001221Y008190D02*
X001321Y008190D01*
X001321Y008092D02*
X001221Y008092D01*
X001221Y007993D02*
X001321Y007993D01*
X001321Y007895D02*
X001221Y007895D01*
X001221Y007796D02*
X000484Y007796D01*
X000484Y007106D02*
X000850Y007106D01*
X000767Y007008D02*
X000484Y007008D01*
X000484Y006909D02*
X000767Y006909D01*
X000767Y006811D02*
X000484Y006811D01*
X000484Y006712D02*
X000767Y006712D01*
X000767Y006614D02*
X000484Y006614D01*
X000484Y006515D02*
X000767Y006515D01*
X000767Y006417D02*
X000484Y006417D01*
X000484Y006318D02*
X000767Y006318D01*
X000816Y006219D02*
X000484Y006219D01*
X001221Y007303D02*
X001321Y007303D01*
X001321Y007402D02*
X001221Y007402D01*
X001221Y007501D02*
X001321Y007501D01*
X001321Y007599D02*
X001221Y007599D01*
X001221Y007698D02*
X001321Y007698D01*
X001321Y007796D02*
X002512Y007796D01*
X002611Y007698D02*
X001775Y007698D01*
X001775Y007599D02*
X002709Y007599D01*
X002808Y007501D02*
X001775Y007501D01*
X001772Y007402D02*
X002906Y007402D01*
X003005Y007303D02*
X001701Y007303D01*
X001692Y007106D02*
X001874Y007106D01*
X001830Y007008D02*
X001775Y007008D01*
X001775Y006909D02*
X001830Y006909D01*
X001830Y006318D02*
X001775Y006318D01*
X001726Y006219D02*
X001879Y006219D01*
X001775Y007895D02*
X002413Y007895D01*
X002315Y007993D02*
X001775Y007993D01*
X001773Y008092D02*
X002222Y008092D01*
X002222Y008190D02*
X001705Y008190D01*
X001767Y008289D02*
X002222Y008289D01*
X002222Y008387D02*
X001775Y008387D01*
X001775Y008486D02*
X001857Y008486D01*
X001830Y008584D02*
X001775Y008584D01*
X001830Y008683D02*
X001321Y008683D01*
X001321Y008782D02*
X001221Y008782D01*
X001221Y008880D02*
X001321Y008880D01*
X001321Y008979D02*
X001221Y008979D01*
X001221Y009077D02*
X001321Y009077D01*
X001729Y009077D02*
X001830Y009077D01*
X001830Y008979D02*
X001775Y008979D01*
X001775Y008880D02*
X001830Y008880D01*
X001830Y008782D02*
X001775Y008782D01*
X001770Y009373D02*
X001861Y009373D01*
X002018Y009866D02*
X002805Y009866D01*
X002395Y009964D02*
X001920Y009964D01*
X001775Y010063D02*
X002297Y010063D01*
X002198Y010161D02*
X001747Y010161D01*
X002098Y010654D02*
X002240Y010654D01*
X002172Y010752D02*
X002339Y010752D01*
X002352Y010950D02*
X003542Y010950D01*
X003542Y011048D02*
X002352Y011048D01*
X002180Y011442D02*
X003109Y011442D01*
X003109Y011541D02*
X002091Y011541D01*
X002155Y012526D02*
X004371Y012526D01*
X004354Y012534D02*
X004262Y012626D01*
X004212Y012746D01*
X004212Y012876D01*
X004262Y012996D01*
X004354Y013088D01*
X004474Y013138D01*
X004604Y013138D01*
X004724Y013088D01*
X004816Y012996D01*
X004866Y012876D01*
X004866Y012746D01*
X004816Y012626D01*
X004724Y012534D01*
X004604Y012484D01*
X004474Y012484D01*
X004354Y012534D01*
X004262Y012625D02*
X002196Y012625D01*
X002237Y012723D02*
X004221Y012723D01*
X004212Y012822D02*
X002248Y012822D01*
X002248Y012920D02*
X004230Y012920D01*
X004284Y013019D02*
X002248Y013019D01*
X002224Y013117D02*
X004424Y013117D01*
X004654Y013117D02*
X006156Y013117D01*
X006206Y013138D02*
X006086Y013088D01*
X005994Y012996D01*
X005944Y012876D01*
X005944Y012746D01*
X005994Y012626D01*
X006086Y012534D01*
X006206Y012484D01*
X006336Y012484D01*
X006456Y012534D01*
X006549Y012626D01*
X006598Y012746D01*
X006598Y012876D01*
X006549Y012996D01*
X006456Y013088D01*
X006336Y013138D01*
X006206Y013138D01*
X006386Y013117D02*
X008586Y013117D01*
X008562Y013019D02*
X006526Y013019D01*
X006580Y012920D02*
X008562Y012920D01*
X008562Y012822D02*
X006598Y012822D01*
X006589Y012723D02*
X008573Y012723D01*
X008614Y012625D02*
X006548Y012625D01*
X006439Y012526D02*
X008655Y012526D01*
X008626Y013216D02*
X002184Y013216D01*
X002143Y013315D02*
X008667Y013315D01*
X008747Y013413D02*
X002063Y013413D01*
X003603Y012428D02*
X003703Y012428D01*
X003703Y012469D02*
X003703Y011877D01*
X004197Y011877D01*
X004197Y012339D01*
X004186Y012377D01*
X004167Y012411D01*
X004139Y012439D01*
X004105Y012459D01*
X004066Y012469D01*
X003703Y012469D01*
X003703Y012329D02*
X003603Y012329D01*
X003603Y012231D02*
X003703Y012231D01*
X003703Y012132D02*
X003603Y012132D01*
X003603Y012034D02*
X003703Y012034D01*
X003703Y011935D02*
X003603Y011935D01*
X003703Y011836D02*
X004527Y011836D01*
X004527Y011738D02*
X004197Y011738D01*
X004197Y011639D02*
X004527Y011639D01*
X004527Y011541D02*
X004197Y011541D01*
X004197Y011442D02*
X004527Y011442D01*
X004529Y011344D02*
X004197Y011344D01*
X004168Y011245D02*
X004600Y011245D01*
X004775Y011245D02*
X004775Y011245D01*
X004775Y011344D02*
X004775Y011344D01*
X004775Y011442D02*
X004775Y011442D01*
X004775Y011541D02*
X004775Y011541D01*
X004775Y011639D02*
X004775Y011639D01*
X004775Y011738D02*
X004775Y011738D01*
X004775Y011836D02*
X004775Y011836D01*
X004775Y011935D02*
X004775Y011935D01*
X004775Y012034D02*
X004775Y012034D01*
X004775Y012132D02*
X004775Y012132D01*
X004775Y012231D02*
X004775Y012231D01*
X004775Y012329D02*
X004775Y012329D01*
X004775Y012428D02*
X004775Y012428D01*
X004706Y012526D02*
X006104Y012526D01*
X006197Y012428D02*
X006660Y012428D01*
X006613Y012329D02*
X006283Y012329D01*
X006283Y012231D02*
X006613Y012231D01*
X006613Y012132D02*
X006283Y012132D01*
X006283Y012034D02*
X006613Y012034D01*
X006613Y011935D02*
X006283Y011935D01*
X006283Y011836D02*
X007107Y011836D01*
X007107Y011738D02*
X007207Y011738D01*
X007207Y011639D02*
X007107Y011639D01*
X007107Y011541D02*
X007207Y011541D01*
X007207Y011442D02*
X007107Y011442D01*
X007107Y011344D02*
X007207Y011344D01*
X007207Y011245D02*
X007107Y011245D01*
X007283Y011048D02*
X006422Y011048D01*
X006422Y011147D02*
X008301Y011147D01*
X008301Y011245D02*
X007672Y011245D01*
X007701Y011344D02*
X008368Y011344D01*
X008467Y011442D02*
X007701Y011442D01*
X007513Y011093D02*
X007478Y011113D01*
X007440Y011123D01*
X007401Y011123D01*
X007363Y011113D01*
X007328Y011093D01*
X007127Y010892D01*
X007448Y010571D01*
X007742Y010864D01*
X007513Y011093D01*
X007558Y011048D02*
X008301Y011048D01*
X008281Y010950D02*
X007656Y010950D01*
X007729Y010851D02*
X008183Y010851D01*
X008105Y010773D02*
X008105Y010773D01*
X008084Y010752D02*
X007853Y010752D01*
X007771Y010752D02*
X007630Y010752D01*
X007673Y010654D02*
X007532Y010654D01*
X007574Y010555D02*
X007464Y010555D01*
X007433Y010555D02*
X007322Y010555D01*
X007335Y010457D02*
X007421Y010457D01*
X007476Y010457D02*
X007562Y010457D01*
X007519Y010358D02*
X007661Y010358D01*
X007618Y010260D02*
X007759Y010260D01*
X007716Y010161D02*
X007847Y010161D01*
X007921Y010260D02*
X007946Y010260D01*
X007749Y010063D02*
X007724Y010063D01*
X007650Y009964D02*
X007626Y009964D01*
X007552Y009866D02*
X007181Y009866D01*
X007083Y009964D02*
X007327Y009964D01*
X007228Y010063D02*
X006984Y010063D01*
X006886Y010161D02*
X007180Y010161D01*
X007137Y010260D02*
X007279Y010260D01*
X007236Y010358D02*
X007377Y010358D01*
X007365Y010654D02*
X007224Y010654D01*
X007266Y010752D02*
X007125Y010752D01*
X007168Y010851D02*
X006560Y010851D01*
X006560Y010752D02*
X006988Y010752D01*
X006889Y010654D02*
X006560Y010654D01*
X006528Y010555D02*
X006827Y010555D01*
X006843Y010457D02*
X006429Y010457D01*
X006495Y010260D02*
X005516Y010260D01*
X005516Y010358D02*
X006932Y010358D01*
X007031Y010260D02*
X006787Y010260D01*
X006396Y010161D02*
X005516Y010161D01*
X005516Y010063D02*
X006298Y010063D01*
X006199Y009964D02*
X005522Y009964D01*
X005621Y009866D02*
X006101Y009866D01*
X006046Y009767D02*
X005719Y009767D01*
X005818Y009668D02*
X006063Y009668D01*
X006162Y009570D02*
X005832Y009570D01*
X005832Y009471D02*
X006260Y009471D01*
X006359Y009373D02*
X005832Y009373D01*
X005832Y009274D02*
X006439Y009274D01*
X006439Y009176D02*
X005832Y009176D01*
X005832Y009077D02*
X006370Y009077D01*
X006271Y008979D02*
X005832Y008979D01*
X005832Y008880D02*
X006173Y008880D01*
X006074Y008782D02*
X005832Y008782D01*
X005832Y008683D02*
X005975Y008683D01*
X005877Y008584D02*
X005740Y008584D01*
X005778Y008486D02*
X005641Y008486D01*
X005680Y008387D02*
X005543Y008387D01*
X005581Y008289D02*
X005444Y008289D01*
X005483Y008190D02*
X005346Y008190D01*
X005384Y008092D02*
X005247Y008092D01*
X005170Y007993D02*
X005340Y007993D01*
X005340Y007895D02*
X005170Y007895D01*
X005170Y007796D02*
X005340Y007796D01*
X005255Y007698D02*
X005256Y007698D01*
X005255Y007599D02*
X005256Y007599D01*
X005255Y007501D02*
X005256Y007501D01*
X005255Y007402D02*
X005256Y007402D01*
X005256Y007343D02*
X005256Y006944D01*
X005340Y006944D01*
X005340Y006867D01*
X005310Y006836D01*
X004454Y006836D01*
X004454Y006918D01*
X004428Y006944D01*
X004473Y006944D01*
X004788Y006944D01*
X005103Y006944D01*
X005110Y006951D01*
X005136Y006944D01*
X005255Y006944D01*
X005255Y007343D01*
X005256Y007343D01*
X005255Y007303D02*
X005256Y007303D01*
X005255Y007205D02*
X005256Y007205D01*
X005255Y007106D02*
X005256Y007106D01*
X005255Y007008D02*
X005256Y007008D01*
X005340Y006909D02*
X004454Y006909D01*
X003808Y005431D02*
X006388Y005431D01*
X006388Y005333D02*
X003808Y005333D01*
X003808Y005234D02*
X006388Y005234D01*
X006388Y005135D02*
X003808Y005135D01*
X003808Y005037D02*
X006388Y005037D01*
X006388Y004938D02*
X003808Y004938D01*
X003808Y004840D02*
X006388Y004840D01*
X006388Y004741D02*
X003808Y004741D01*
X003808Y004643D02*
X006388Y004643D01*
X006388Y004544D02*
X003808Y004544D01*
X003808Y004446D02*
X006388Y004446D01*
X006379Y004347D02*
X006430Y004347D01*
X006450Y004249D02*
X006650Y004249D01*
X006749Y004150D02*
X006494Y004150D01*
X006592Y004051D02*
X006847Y004051D01*
X006946Y003953D02*
X006691Y003953D01*
X007202Y004347D02*
X008170Y004347D01*
X008268Y004249D02*
X007301Y004249D01*
X007399Y004150D02*
X008301Y004150D01*
X008301Y004051D02*
X007498Y004051D01*
X007596Y003953D02*
X008301Y003953D01*
X008351Y003854D02*
X007695Y003854D01*
X007793Y003756D02*
X008450Y003756D01*
X008548Y003657D02*
X007892Y003657D01*
X007807Y002968D02*
X007676Y002968D01*
X008778Y003559D02*
X010326Y003559D01*
X010326Y003657D02*
X008955Y003657D01*
X009053Y003756D02*
X010326Y003756D01*
X010326Y003854D02*
X009152Y003854D01*
X009201Y003953D02*
X010326Y003953D01*
X010326Y004051D02*
X009201Y004051D01*
X009201Y004150D02*
X010326Y004150D01*
X010326Y004249D02*
X009201Y004249D01*
X009131Y004347D02*
X010326Y004347D01*
X010326Y004446D02*
X009033Y004446D01*
X008940Y004643D02*
X010326Y004643D01*
X010326Y004741D02*
X009039Y004741D01*
X009137Y004840D02*
X010326Y004840D01*
X010326Y004938D02*
X009201Y004938D01*
X009201Y005037D02*
X010326Y005037D01*
X010326Y005135D02*
X009201Y005135D01*
X009201Y005234D02*
X010326Y005234D01*
X010326Y005333D02*
X009146Y005333D01*
X009047Y005431D02*
X010326Y005431D01*
X010326Y005530D02*
X008949Y005530D01*
X009024Y005727D02*
X010326Y005727D01*
X010326Y005825D02*
X009123Y005825D01*
X009201Y005924D02*
X010326Y005924D01*
X010326Y006022D02*
X009201Y006022D01*
X009201Y006121D02*
X010326Y006121D01*
X010326Y006219D02*
X009201Y006219D01*
X009160Y006318D02*
X010326Y006318D01*
X010326Y006417D02*
X009062Y006417D01*
X008963Y006515D02*
X010326Y006515D01*
X010326Y006614D02*
X008600Y006614D01*
X008540Y006515D02*
X008501Y006515D01*
X008441Y006417D02*
X008403Y006417D01*
X008343Y006318D02*
X008304Y006318D01*
X008301Y006219D02*
X008206Y006219D01*
X008301Y006121D02*
X008107Y006121D01*
X008009Y006022D02*
X008301Y006022D01*
X008260Y005924D02*
X007910Y005924D01*
X007811Y005825D02*
X008161Y005825D01*
X008062Y005727D02*
X007713Y005727D01*
X008229Y004938D02*
X008301Y004938D01*
X008327Y004840D02*
X008366Y004840D01*
X008426Y004741D02*
X008464Y004741D01*
X008524Y004643D02*
X008563Y004643D01*
X008623Y004544D02*
X010326Y004544D01*
X010326Y003460D02*
X008876Y003460D01*
X008975Y003362D02*
X010326Y003362D01*
X010326Y003263D02*
X009073Y003263D01*
X009172Y003165D02*
X010326Y003165D01*
X010326Y003066D02*
X009270Y003066D01*
X009302Y002968D02*
X010326Y002968D01*
X010326Y002869D02*
X009401Y002869D01*
X009499Y002770D02*
X010326Y002770D01*
X010326Y002672D02*
X009505Y002672D01*
X009505Y002573D02*
X010326Y002573D01*
X010326Y002475D02*
X009505Y002475D01*
X009489Y002376D02*
X010326Y002376D01*
X010326Y002278D02*
X009390Y002278D01*
X008071Y004446D02*
X007188Y004446D01*
X007188Y004544D02*
X007973Y004544D01*
X008417Y005431D02*
X008456Y005431D01*
X008516Y005530D02*
X008554Y005530D01*
X008614Y005628D02*
X010326Y005628D01*
X010326Y006712D02*
X009009Y006712D01*
X009108Y006811D02*
X010326Y006811D01*
X010326Y006909D02*
X009201Y006909D01*
X009201Y007008D02*
X010326Y007008D01*
X010326Y007106D02*
X009201Y007106D01*
X009201Y007205D02*
X010326Y007205D01*
X010326Y007303D02*
X009175Y007303D01*
X009076Y007402D02*
X010326Y007402D01*
X010326Y007501D02*
X008978Y007501D01*
X008995Y007698D02*
X010326Y007698D01*
X010326Y007796D02*
X009093Y007796D01*
X009192Y007895D02*
X010326Y007895D01*
X010326Y007993D02*
X009201Y007993D01*
X009201Y008092D02*
X010326Y008092D01*
X010326Y008190D02*
X009201Y008190D01*
X009190Y008289D02*
X010326Y008289D01*
X010326Y008387D02*
X009091Y008387D01*
X008992Y008486D02*
X010326Y008486D01*
X010326Y008584D02*
X008571Y008584D01*
X008511Y008486D02*
X008472Y008486D01*
X008412Y008387D02*
X008374Y008387D01*
X008313Y008289D02*
X008275Y008289D01*
X008301Y008190D02*
X008176Y008190D01*
X008115Y008092D02*
X008301Y008092D01*
X008301Y007993D02*
X008115Y007993D01*
X008115Y007895D02*
X008230Y007895D01*
X008132Y007796D02*
X008115Y007796D01*
X008487Y007501D02*
X008525Y007501D01*
X008585Y007599D02*
X010326Y007599D01*
X010326Y008683D02*
X008980Y008683D01*
X009079Y008782D02*
X010326Y008782D01*
X010326Y008880D02*
X009177Y008880D01*
X009201Y008979D02*
X010326Y008979D01*
X010326Y009077D02*
X009201Y009077D01*
X009201Y009176D02*
X010326Y009176D01*
X010326Y009274D02*
X009201Y009274D01*
X009106Y009373D02*
X010326Y009373D01*
X010326Y009471D02*
X009007Y009471D01*
X008481Y010457D02*
X008439Y010457D01*
X008538Y010555D02*
X010326Y010555D01*
X007986Y010654D02*
X007952Y010654D01*
X007453Y009767D02*
X007280Y009767D01*
X007292Y009668D02*
X007355Y009668D01*
X007256Y009570D02*
X007231Y009570D01*
X007158Y009471D02*
X007133Y009471D01*
X007059Y009373D02*
X007034Y009373D01*
X006960Y009274D02*
X006936Y009274D01*
X007410Y007993D02*
X007655Y007993D01*
X007655Y007895D02*
X007509Y007895D01*
X007607Y007796D02*
X007655Y007796D01*
X007655Y007698D02*
X007627Y007698D01*
X007627Y007599D02*
X007655Y007599D01*
X007655Y007501D02*
X007627Y007501D01*
X007624Y007402D02*
X007655Y007402D01*
X007655Y007303D02*
X007526Y007303D01*
X007568Y007205D02*
X007427Y007205D01*
X007470Y007106D02*
X007018Y007106D01*
X007018Y007008D02*
X007371Y007008D01*
X007273Y006909D02*
X007188Y006909D01*
X005956Y010457D02*
X005516Y010457D01*
X005516Y010555D02*
X005857Y010555D01*
X005825Y010654D02*
X005516Y010654D01*
X005565Y010752D02*
X005825Y010752D01*
X005825Y010851D02*
X005664Y010851D01*
X005762Y010950D02*
X005882Y010950D01*
X005861Y011048D02*
X005953Y011048D01*
X006308Y011344D02*
X006613Y011344D01*
X006613Y011442D02*
X006283Y011442D01*
X006283Y011541D02*
X006613Y011541D01*
X006613Y011639D02*
X006283Y011639D01*
X006283Y011738D02*
X006613Y011738D01*
X006642Y011245D02*
X006406Y011245D01*
X006503Y010950D02*
X007185Y010950D01*
X005995Y012625D02*
X004815Y012625D01*
X004857Y012723D02*
X005953Y012723D01*
X005944Y012822D02*
X004866Y012822D01*
X004848Y012920D02*
X005962Y012920D01*
X006016Y013019D02*
X004794Y013019D01*
X004900Y012428D02*
X004928Y012428D01*
X004650Y012428D02*
X004150Y012428D01*
X004197Y012329D02*
X004535Y012329D01*
X004527Y012231D02*
X004197Y012231D01*
X004197Y012132D02*
X004527Y012132D01*
X004527Y012034D02*
X004197Y012034D01*
X004197Y011935D02*
X004527Y011935D01*
X004479Y010260D02*
X004506Y010260D01*
X000484Y014596D02*
X010326Y014596D01*
X010326Y014694D02*
X000484Y014694D01*
X000484Y014793D02*
X010326Y014793D01*
X003817Y004347D02*
X003766Y004347D01*
X003746Y004249D02*
X003076Y004249D01*
X003076Y004150D02*
X003746Y004150D01*
X003746Y004051D02*
X003076Y004051D01*
X003076Y003953D02*
X003746Y003953D01*
X003746Y003854D02*
X003076Y003854D01*
X003076Y003756D02*
X003746Y003756D01*
X003746Y003657D02*
X003076Y003657D01*
X003076Y003559D02*
X003766Y003559D01*
X003575Y002770D02*
X002410Y002770D01*
X002312Y002672D02*
X003076Y003436D01*
X002616Y003953D02*
X002593Y003953D01*
X002278Y001785D02*
X000484Y001785D01*
X000484Y001686D02*
X002180Y001686D01*
X002128Y001588D02*
X000484Y001588D01*
X000484Y001489D02*
X002128Y001489D01*
X002128Y001391D02*
X000484Y001391D01*
X000484Y001292D02*
X002128Y001292D01*
X002197Y001194D02*
X000484Y001194D01*
X000484Y001095D02*
X002295Y001095D01*
X000484Y000997D02*
X007540Y000997D01*
X007638Y000898D02*
X000484Y000898D01*
X000484Y000800D02*
X007737Y000800D01*
D23*
X004086Y008634D03*
X006192Y010740D03*
M02*
