G75*
G70*
%OFA0B0*%
%FSLAX24Y24*%
%IPPOS*%
%LPD*%
%AMOC8*
5,1,8,0,0,1.08239X$1,22.5*
%
%ADD10R,0.0500X0.0200*%
%ADD11R,0.0200X0.0500*%
%ADD12R,0.0710X0.0630*%
%ADD13R,0.0630X0.0709*%
%ADD14R,0.0709X0.0630*%
%ADD15R,0.0787X0.0709*%
%ADD16R,0.0787X0.0984*%
%ADD17R,0.0197X0.0906*%
%ADD18R,0.0945X0.0669*%
D10*
X003408Y004551D03*
X003408Y004866D03*
X003408Y005181D03*
X003408Y005496D03*
X003408Y005811D03*
X003408Y006126D03*
X003408Y006441D03*
X003408Y006756D03*
X006788Y006756D03*
X006788Y006441D03*
X006788Y006126D03*
X006788Y005811D03*
X006788Y005496D03*
X006788Y005181D03*
X006788Y004866D03*
X006788Y004551D03*
D11*
X006200Y003964D03*
X005885Y003964D03*
X005570Y003964D03*
X005255Y003964D03*
X004940Y003964D03*
X004626Y003964D03*
X004311Y003964D03*
X003996Y003964D03*
X003996Y007344D03*
X004311Y007344D03*
X004626Y007344D03*
X004940Y007344D03*
X005255Y007344D03*
X005570Y007344D03*
X005885Y007344D03*
X006200Y007344D03*
D12*
X005011Y009196D03*
X005011Y010316D03*
X004047Y010709D03*
X004047Y009590D03*
D13*
G36*
X006196Y009747D02*
X006642Y010193D01*
X007142Y009693D01*
X006696Y009247D01*
X006196Y009747D01*
G37*
G36*
X006975Y010527D02*
X007421Y010973D01*
X007921Y010473D01*
X007475Y010027D01*
X006975Y010527D01*
G37*
D14*
X001271Y009756D03*
X001271Y008654D03*
X001271Y007748D03*
X001271Y006646D03*
D15*
X003653Y013992D03*
X007157Y013992D03*
D16*
X007157Y011827D03*
X003653Y011827D03*
D17*
X004775Y011827D03*
X005090Y011827D03*
X005405Y011827D03*
X005720Y011827D03*
X006035Y011827D03*
D18*
X002452Y008909D03*
X002452Y006665D03*
M02*
