G75*
G70*
%OFA0B0*%
%FSLAX24Y24*%
%IPPOS*%
%LPD*%
%AMOC8*
5,1,8,0,0,1.08239X$1,22.5*
%
%ADD10C,0.0000*%
D10*
X000287Y000110D02*
X000287Y015071D01*
X010523Y015071D01*
X010523Y000110D01*
X000287Y000110D01*
X004362Y012811D02*
X004364Y012837D01*
X004370Y012863D01*
X004380Y012888D01*
X004393Y012911D01*
X004409Y012931D01*
X004429Y012949D01*
X004451Y012964D01*
X004474Y012976D01*
X004500Y012984D01*
X004526Y012988D01*
X004552Y012988D01*
X004578Y012984D01*
X004604Y012976D01*
X004628Y012964D01*
X004649Y012949D01*
X004669Y012931D01*
X004685Y012911D01*
X004698Y012888D01*
X004708Y012863D01*
X004714Y012837D01*
X004716Y012811D01*
X004714Y012785D01*
X004708Y012759D01*
X004698Y012734D01*
X004685Y012711D01*
X004669Y012691D01*
X004649Y012673D01*
X004627Y012658D01*
X004604Y012646D01*
X004578Y012638D01*
X004552Y012634D01*
X004526Y012634D01*
X004500Y012638D01*
X004474Y012646D01*
X004450Y012658D01*
X004429Y012673D01*
X004409Y012691D01*
X004393Y012711D01*
X004380Y012734D01*
X004370Y012759D01*
X004364Y012785D01*
X004362Y012811D01*
X006094Y012811D02*
X006096Y012837D01*
X006102Y012863D01*
X006112Y012888D01*
X006125Y012911D01*
X006141Y012931D01*
X006161Y012949D01*
X006183Y012964D01*
X006206Y012976D01*
X006232Y012984D01*
X006258Y012988D01*
X006284Y012988D01*
X006310Y012984D01*
X006336Y012976D01*
X006360Y012964D01*
X006381Y012949D01*
X006401Y012931D01*
X006417Y012911D01*
X006430Y012888D01*
X006440Y012863D01*
X006446Y012837D01*
X006448Y012811D01*
X006446Y012785D01*
X006440Y012759D01*
X006430Y012734D01*
X006417Y012711D01*
X006401Y012691D01*
X006381Y012673D01*
X006359Y012658D01*
X006336Y012646D01*
X006310Y012638D01*
X006284Y012634D01*
X006258Y012634D01*
X006232Y012638D01*
X006206Y012646D01*
X006182Y012658D01*
X006161Y012673D01*
X006141Y012691D01*
X006125Y012711D01*
X006112Y012734D01*
X006102Y012759D01*
X006096Y012785D01*
X006094Y012811D01*
X008712Y012906D02*
X008714Y012956D01*
X008720Y013006D01*
X008730Y013055D01*
X008744Y013103D01*
X008761Y013150D01*
X008782Y013195D01*
X008807Y013239D01*
X008835Y013280D01*
X008867Y013319D01*
X008901Y013356D01*
X008938Y013390D01*
X008978Y013420D01*
X009020Y013447D01*
X009064Y013471D01*
X009110Y013492D01*
X009157Y013508D01*
X009205Y013521D01*
X009255Y013530D01*
X009304Y013535D01*
X009355Y013536D01*
X009405Y013533D01*
X009454Y013526D01*
X009503Y013515D01*
X009551Y013500D01*
X009597Y013482D01*
X009642Y013460D01*
X009685Y013434D01*
X009726Y013405D01*
X009765Y013373D01*
X009801Y013338D01*
X009833Y013300D01*
X009863Y013260D01*
X009890Y013217D01*
X009913Y013173D01*
X009932Y013127D01*
X009948Y013079D01*
X009960Y013030D01*
X009968Y012981D01*
X009972Y012931D01*
X009972Y012881D01*
X009968Y012831D01*
X009960Y012782D01*
X009948Y012733D01*
X009932Y012685D01*
X009913Y012639D01*
X009890Y012595D01*
X009863Y012552D01*
X009833Y012512D01*
X009801Y012474D01*
X009765Y012439D01*
X009726Y012407D01*
X009685Y012378D01*
X009642Y012352D01*
X009597Y012330D01*
X009551Y012312D01*
X009503Y012297D01*
X009454Y012286D01*
X009405Y012279D01*
X009355Y012276D01*
X009304Y012277D01*
X009255Y012282D01*
X009205Y012291D01*
X009157Y012304D01*
X009110Y012320D01*
X009064Y012341D01*
X009020Y012365D01*
X008978Y012392D01*
X008938Y012422D01*
X008901Y012456D01*
X008867Y012493D01*
X008835Y012532D01*
X008807Y012573D01*
X008782Y012617D01*
X008761Y012662D01*
X008744Y012709D01*
X008730Y012757D01*
X008720Y012806D01*
X008714Y012856D01*
X008712Y012906D01*
X000838Y012906D02*
X000840Y012956D01*
X000846Y013006D01*
X000856Y013055D01*
X000870Y013103D01*
X000887Y013150D01*
X000908Y013195D01*
X000933Y013239D01*
X000961Y013280D01*
X000993Y013319D01*
X001027Y013356D01*
X001064Y013390D01*
X001104Y013420D01*
X001146Y013447D01*
X001190Y013471D01*
X001236Y013492D01*
X001283Y013508D01*
X001331Y013521D01*
X001381Y013530D01*
X001430Y013535D01*
X001481Y013536D01*
X001531Y013533D01*
X001580Y013526D01*
X001629Y013515D01*
X001677Y013500D01*
X001723Y013482D01*
X001768Y013460D01*
X001811Y013434D01*
X001852Y013405D01*
X001891Y013373D01*
X001927Y013338D01*
X001959Y013300D01*
X001989Y013260D01*
X002016Y013217D01*
X002039Y013173D01*
X002058Y013127D01*
X002074Y013079D01*
X002086Y013030D01*
X002094Y012981D01*
X002098Y012931D01*
X002098Y012881D01*
X002094Y012831D01*
X002086Y012782D01*
X002074Y012733D01*
X002058Y012685D01*
X002039Y012639D01*
X002016Y012595D01*
X001989Y012552D01*
X001959Y012512D01*
X001927Y012474D01*
X001891Y012439D01*
X001852Y012407D01*
X001811Y012378D01*
X001768Y012352D01*
X001723Y012330D01*
X001677Y012312D01*
X001629Y012297D01*
X001580Y012286D01*
X001531Y012279D01*
X001481Y012276D01*
X001430Y012277D01*
X001381Y012282D01*
X001331Y012291D01*
X001283Y012304D01*
X001236Y012320D01*
X001190Y012341D01*
X001146Y012365D01*
X001104Y012392D01*
X001064Y012422D01*
X001027Y012456D01*
X000993Y012493D01*
X000961Y012532D01*
X000933Y012573D01*
X000908Y012617D01*
X000887Y012662D01*
X000870Y012709D01*
X000856Y012757D01*
X000846Y012806D01*
X000840Y012856D01*
X000838Y012906D01*
M02*
