%
M48
M72
T01C0.0276
T02C0.0354
T03C0.0400
T04C0.1260
%
T01
X3333Y5944
X3909Y7312
X5415Y6594
X7354Y10855
X7374Y11603
X4303Y11052
T02
X4933Y13792
X6665Y13792
T03
X2059Y2131
X2059Y3131
X2059Y4131
X2059Y5131
X2874Y1131
X3874Y1131
X4874Y1131
X5874Y1131
X6874Y1131
X6578Y2844
X7578Y2844
X8358Y1966
X8358Y966
X9834Y3576
X9834Y4576
X9834Y5576
X9834Y6576
X9834Y7576
X9834Y8576
X9834Y9576
X9834Y10576
X8259Y7371
X2846Y9914
X2846Y10914
X2846Y11914
X1665Y11414
X1665Y10414
T04
X1862Y13572
X9736Y13572
M30
