%
M48
M72
T01C0.0276
T02C0.0354
T03C0.0400
T04C0.1260
%
T01
X4086Y8634
X6192Y10740
T02
X6271Y12811
X4539Y12811
T03
X1862Y2547
X1862Y3547
X1862Y4547
X1862Y5547
X2578Y1449
X3578Y1449
X4578Y1449
X5578Y1449
X6578Y1449
X8055Y1579
X8055Y2579
X9055Y2579
X9055Y1579
X8751Y4091
X8751Y5091
X8751Y6091
X8751Y7091
X8751Y8091
X8751Y9091
X8751Y10091
X8751Y11091
X7177Y7591
X2609Y10387
X1902Y11094
T04
X1468Y12906
X9342Y12906
M30
