G04 This is an RS-274x file exported by *
G04 gerbv version 2.6.0 *
G04 More information is available about gerbv at *
G04 http://gerbv.gpleda.org/ *
G04 --End of header info--*
%MOIN*%
%FSLAX34Y34*%
%IPPOS*%
G04 --Define apertures--*
%AMMACRO10*
5,1,8,0.000000,0.000000,0.064943,22.500000*
%
%ADD10MACRO10*%
%ADD11R,0.1260X0.0394*%
%ADD12C,0.0160*%
%AMMACRO13*
5,1,8,0.000000,0.000000,0.047192,22.500000*
%
%ADD13MACRO13*%
G04 --Start main section--*
G54D10*
G01X0002059Y0002131D03*
G01X0002059Y0003131D03*
G01X0002059Y0004131D03*
G01X0002059Y0005131D03*
G01X0002874Y0001131D03*
G01X0003874Y0001131D03*
G01X0004874Y0001131D03*
G01X0005874Y0001131D03*
G01X0006874Y0001131D03*
G01X0006578Y0002844D03*
G01X0007578Y0002844D03*
G01X0008358Y0001966D03*
G01X0008358Y0000966D03*
G01X0009834Y0003576D03*
G01X0009834Y0004576D03*
G01X0009834Y0005576D03*
G01X0009834Y0006576D03*
G01X0009834Y0007576D03*
G01X0009834Y0008576D03*
G01X0009834Y0009576D03*
G01X0009834Y0010576D03*
G01X0008259Y0007371D03*
G01X0002846Y0009914D03*
G01X0002846Y0010914D03*
G01X0002846Y0011914D03*
G01X0001665Y0011414D03*
G01X0001665Y0010414D03*
G54D11*
G01X0004559Y0010127D03*
G01X0004559Y0008552D03*
G01X0007236Y0008552D03*
G01X0007236Y0010127D03*
G01X0007629Y0005304D03*
G01X0007629Y0003729D03*
G01X0004952Y0003729D03*
G01X0004952Y0005304D03*
G54D12*
G01X0000664Y0000366D02*
G01X0000664Y0015557D01*
G01X0000664Y0015557D02*
G01X0010934Y0015557D01*
G01X0010934Y0015557D02*
G01X0010934Y0000366D01*
G01X0010934Y0000366D02*
G01X0000664Y0000366D01*
G01X0000664Y0000383D02*
G01X0010934Y0000383D01*
G01X0010934Y0000542D02*
G01X0008612Y0000542D01*
G01X0008557Y0000486D02*
G01X0008838Y0000767D01*
G01X0008838Y0000767D02*
G01X0008838Y0001164D01*
G01X0008838Y0001164D02*
G01X0008557Y0001446D01*
G01X0008557Y0001446D02*
G01X0008159Y0001446D01*
G01X0008159Y0001446D02*
G01X0007878Y0001164D01*
G01X0007878Y0001164D02*
G01X0007878Y0000767D01*
G01X0007878Y0000767D02*
G01X0008159Y0000486D01*
G01X0008159Y0000486D02*
G01X0008557Y0000486D01*
G01X0008771Y0000700D02*
G01X0010934Y0000700D01*
G01X0010934Y0000859D02*
G01X0008838Y0000859D01*
G01X0008838Y0001017D02*
G01X0010934Y0001017D01*
G01X0010934Y0001176D02*
G01X0008826Y0001176D01*
G01X0008668Y0001334D02*
G01X0010934Y0001334D01*
G01X0010934Y0001493D02*
G01X0008564Y0001493D01*
G01X0008557Y0001486D02*
G01X0008838Y0001767D01*
G01X0008838Y0001767D02*
G01X0008838Y0002164D01*
G01X0008838Y0002164D02*
G01X0008557Y0002446D01*
G01X0008557Y0002446D02*
G01X0008159Y0002446D01*
G01X0008159Y0002446D02*
G01X0007878Y0002164D01*
G01X0007878Y0002164D02*
G01X0007878Y0001767D01*
G01X0007878Y0001767D02*
G01X0008159Y0001486D01*
G01X0008159Y0001486D02*
G01X0008557Y0001486D01*
G01X0008722Y0001651D02*
G01X0010934Y0001651D01*
G01X0010934Y0001810D02*
G01X0008838Y0001810D01*
G01X0008838Y0001968D02*
G01X0010934Y0001968D01*
G01X0010934Y0002127D02*
G01X0008838Y0002127D01*
G01X0008717Y0002286D02*
G01X0010934Y0002286D01*
G01X0010934Y0002444D02*
G01X0008558Y0002444D01*
G01X0008157Y0002444D02*
G01X0007857Y0002444D01*
G01X0007777Y0002364D02*
G01X0008058Y0002645D01*
G01X0008058Y0002645D02*
G01X0008058Y0003042D01*
G01X0008058Y0003042D02*
G01X0007777Y0003324D01*
G01X0007777Y0003324D02*
G01X0007379Y0003324D01*
G01X0007379Y0003324D02*
G01X0007098Y0003042D01*
G01X0007098Y0003042D02*
G01X0007098Y0002645D01*
G01X0007098Y0002645D02*
G01X0007379Y0002364D01*
G01X0007379Y0002364D02*
G01X0007777Y0002364D01*
G01X0007999Y0002286D02*
G01X0006036Y0002286D01*
G01X0006103Y0002218D02*
G01X0005212Y0003109D01*
G01X0005212Y0003109D02*
G01X0005212Y0003353D01*
G01X0005212Y0003353D02*
G01X0005657Y0003353D01*
G01X0005657Y0003353D02*
G01X0005762Y0003458D01*
G01X0005762Y0003458D02*
G01X0005762Y0003469D01*
G01X0005762Y0003469D02*
G01X0006820Y0003469D01*
G01X0006820Y0003469D02*
G01X0006820Y0003458D01*
G01X0006820Y0003458D02*
G01X0006925Y0003353D01*
G01X0006925Y0003353D02*
G01X0008334Y0003353D01*
G01X0008334Y0003353D02*
G01X0008439Y0003458D01*
G01X0008439Y0003458D02*
G01X0008439Y0004001D01*
G01X0008439Y0004001D02*
G01X0008334Y0004106D01*
G01X0008334Y0004106D02*
G01X0006925Y0004106D01*
G01X0006925Y0004106D02*
G01X0006820Y0004001D01*
G01X0006820Y0004001D02*
G01X0006820Y0003989D01*
G01X0006820Y0003989D02*
G01X0005762Y0003989D01*
G01X0005762Y0003989D02*
G01X0005762Y0004001D01*
G01X0005762Y0004001D02*
G01X0005657Y0004106D01*
G01X0005657Y0004106D02*
G01X0004248Y0004106D01*
G01X0004248Y0004106D02*
G01X0004142Y0004001D01*
G01X0004142Y0004001D02*
G01X0004142Y0003458D01*
G01X0004142Y0003458D02*
G01X0004248Y0003353D01*
G01X0004248Y0003353D02*
G01X0004692Y0003353D01*
G01X0004692Y0003353D02*
G01X0004692Y0003053D01*
G01X0004692Y0003053D02*
G01X0004692Y0002949D01*
G01X0004692Y0002949D02*
G01X0004732Y0002854D01*
G01X0004732Y0002854D02*
G01X0005775Y0001811D01*
G01X0005775Y0001811D02*
G01X0005848Y0001737D01*
G01X0005848Y0001737D02*
G01X0005944Y0001698D01*
G01X0005944Y0001698D02*
G01X0006380Y0001698D01*
G01X0006380Y0001698D02*
G01X0006571Y0001507D01*
G01X0006571Y0001507D02*
G01X0006394Y0001330D01*
G01X0006394Y0001330D02*
G01X0006394Y0000932D01*
G01X0006394Y0000932D02*
G01X0006675Y0000651D01*
G01X0006675Y0000651D02*
G01X0007072Y0000651D01*
G01X0007072Y0000651D02*
G01X0007354Y0000932D01*
G01X0007354Y0000932D02*
G01X0007354Y0001330D01*
G01X0007354Y0001330D02*
G01X0007134Y0001550D01*
G01X0007134Y0001550D02*
G01X0007134Y0001624D01*
G01X0007134Y0001624D02*
G01X0007094Y0001719D01*
G01X0007094Y0001719D02*
G01X0007021Y0001792D01*
G01X0007021Y0001792D02*
G01X0006635Y0002178D01*
G01X0006635Y0002178D02*
G01X0006539Y0002218D01*
G01X0006539Y0002218D02*
G01X0006436Y0002218D01*
G01X0006436Y0002218D02*
G01X0006103Y0002218D01*
G01X0005996Y0001958D02*
G01X0006488Y0001958D01*
G01X0006488Y0001958D02*
G01X0006874Y0001572D01*
G01X0006874Y0001572D02*
G01X0006874Y0001131D01*
G01X0006557Y0001493D02*
G01X0006191Y0001493D01*
G01X0006072Y0001611D02*
G01X0005675Y0001611D01*
G01X0005675Y0001611D02*
G01X0005394Y0001330D01*
G01X0005394Y0001330D02*
G01X0005394Y0000932D01*
G01X0005394Y0000932D02*
G01X0005675Y0000651D01*
G01X0005675Y0000651D02*
G01X0006072Y0000651D01*
G01X0006072Y0000651D02*
G01X0006354Y0000932D01*
G01X0006354Y0000932D02*
G01X0006354Y0001330D01*
G01X0006354Y0001330D02*
G01X0006072Y0001611D01*
G01X0005996Y0001958D02*
G01X0004952Y0003001D01*
G01X0004952Y0003001D02*
G01X0004952Y0003729D01*
G01X0004952Y0003729D02*
G01X0007629Y0003729D01*
G01X0007864Y0003237D02*
G01X0009494Y0003237D01*
G01X0009354Y0003377D02*
G01X0009635Y0003096D01*
G01X0009635Y0003096D02*
G01X0010033Y0003096D01*
G01X0010033Y0003096D02*
G01X0010314Y0003377D01*
G01X0010314Y0003377D02*
G01X0010314Y0003775D01*
G01X0010314Y0003775D02*
G01X0010033Y0004056D01*
G01X0010033Y0004056D02*
G01X0009635Y0004056D01*
G01X0009635Y0004056D02*
G01X0009354Y0003775D01*
G01X0009354Y0003775D02*
G01X0009354Y0003377D01*
G01X0009354Y0003395D02*
G01X0008377Y0003395D01*
G01X0008439Y0003554D02*
G01X0009354Y0003554D01*
G01X0009354Y0003712D02*
G01X0008439Y0003712D01*
G01X0008439Y0003871D02*
G01X0009450Y0003871D01*
G01X0009609Y0004029D02*
G01X0008411Y0004029D01*
G01X0008283Y0004927D02*
G01X0007648Y0004927D01*
G01X0007648Y0004927D02*
G01X0007648Y0005286D01*
G01X0007648Y0005286D02*
G01X0007648Y0005323D01*
G01X0007648Y0005323D02*
G01X0007611Y0005323D01*
G01X0007611Y0005323D02*
G01X0007611Y0005681D01*
G01X0007611Y0005681D02*
G01X0006976Y0005681D01*
G01X0006976Y0005681D02*
G01X0006930Y0005669D01*
G01X0006930Y0005669D02*
G01X0006889Y0005645D01*
G01X0006889Y0005645D02*
G01X0006855Y0005612D01*
G01X0006855Y0005612D02*
G01X0006832Y0005571D01*
G01X0006832Y0005571D02*
G01X0006820Y0005525D01*
G01X0006820Y0005525D02*
G01X0006820Y0005323D01*
G01X0006820Y0005323D02*
G01X0007611Y0005323D01*
G01X0007611Y0005323D02*
G01X0007611Y0005286D01*
G01X0007611Y0005286D02*
G01X0006820Y0005286D01*
G01X0006820Y0005286D02*
G01X0006820Y0005084D01*
G01X0006820Y0005084D02*
G01X0006832Y0005038D01*
G01X0006832Y0005038D02*
G01X0006855Y0004997D01*
G01X0006855Y0004997D02*
G01X0006889Y0004963D01*
G01X0006889Y0004963D02*
G01X0006930Y0004940D01*
G01X0006930Y0004940D02*
G01X0006976Y0004927D01*
G01X0006976Y0004927D02*
G01X0007611Y0004927D01*
G01X0007611Y0004927D02*
G01X0007611Y0005286D01*
G01X0007611Y0005286D02*
G01X0007648Y0005286D01*
G01X0007648Y0005286D02*
G01X0008439Y0005286D01*
G01X0008439Y0005286D02*
G01X0008439Y0005084D01*
G01X0008439Y0005084D02*
G01X0008427Y0005038D01*
G01X0008427Y0005038D02*
G01X0008403Y0004997D01*
G01X0008403Y0004997D02*
G01X0008370Y0004963D01*
G01X0008370Y0004963D02*
G01X0008329Y0004940D01*
G01X0008329Y0004940D02*
G01X0008283Y0004927D01*
G01X0008387Y0004981D02*
G01X0009560Y0004981D01*
G01X0009635Y0005056D02*
G01X0009354Y0004775D01*
G01X0009354Y0004775D02*
G01X0009354Y0004377D01*
G01X0009354Y0004377D02*
G01X0009635Y0004096D01*
G01X0009635Y0004096D02*
G01X0010033Y0004096D01*
G01X0010033Y0004096D02*
G01X0010314Y0004377D01*
G01X0010314Y0004377D02*
G01X0010314Y0004775D01*
G01X0010314Y0004775D02*
G01X0010033Y0005056D01*
G01X0010033Y0005056D02*
G01X0009635Y0005056D01*
G01X0009635Y0005096D02*
G01X0010033Y0005096D01*
G01X0010033Y0005096D02*
G01X0010314Y0005377D01*
G01X0010314Y0005377D02*
G01X0010314Y0005775D01*
G01X0010314Y0005775D02*
G01X0010033Y0006056D01*
G01X0010033Y0006056D02*
G01X0009635Y0006056D01*
G01X0009635Y0006056D02*
G01X0009354Y0005775D01*
G01X0009354Y0005775D02*
G01X0009354Y0005377D01*
G01X0009354Y0005377D02*
G01X0009635Y0005096D01*
G01X0009592Y0005139D02*
G01X0008439Y0005139D01*
G01X0008439Y0005323D02*
G01X0008439Y0005525D01*
G01X0008439Y0005525D02*
G01X0008427Y0005571D01*
G01X0008427Y0005571D02*
G01X0008403Y0005612D01*
G01X0008403Y0005612D02*
G01X0008370Y0005645D01*
G01X0008370Y0005645D02*
G01X0008329Y0005669D01*
G01X0008329Y0005669D02*
G01X0008283Y0005681D01*
G01X0008283Y0005681D02*
G01X0007648Y0005681D01*
G01X0007648Y0005681D02*
G01X0007648Y0005323D01*
G01X0007648Y0005323D02*
G01X0008439Y0005323D01*
G01X0008439Y0005456D02*
G01X0009354Y0005456D01*
G01X0009354Y0005615D02*
G01X0008400Y0005615D01*
G01X0007648Y0005615D02*
G01X0007611Y0005615D01*
G01X0007611Y0005456D02*
G01X0007648Y0005456D01*
G01X0007648Y0005298D02*
G01X0009433Y0005298D01*
G01X0009402Y0004822D02*
G01X0002429Y0004822D01*
G01X0002539Y0004932D02*
G01X0002257Y0004651D01*
G01X0002257Y0004651D02*
G01X0001860Y0004651D01*
G01X0001860Y0004651D02*
G01X0001579Y0004932D01*
G01X0001579Y0004932D02*
G01X0001579Y0005330D01*
G01X0001579Y0005330D02*
G01X0001860Y0005611D01*
G01X0001860Y0005611D02*
G01X0002257Y0005611D01*
G01X0002257Y0005611D02*
G01X0002539Y0005330D01*
G01X0002539Y0005330D02*
G01X0002539Y0004932D01*
G01X0002539Y0004981D02*
G01X0004194Y0004981D01*
G01X0004178Y0004997D02*
G01X0004212Y0004963D01*
G01X0004212Y0004963D02*
G01X0004253Y0004940D01*
G01X0004253Y0004940D02*
G01X0004299Y0004927D01*
G01X0004299Y0004927D02*
G01X0004934Y0004927D01*
G01X0004934Y0004927D02*
G01X0004934Y0005286D01*
G01X0004934Y0005286D02*
G01X0004971Y0005286D01*
G01X0004971Y0005286D02*
G01X0004971Y0005323D01*
G01X0004971Y0005323D02*
G01X0004934Y0005323D01*
G01X0004934Y0005323D02*
G01X0004934Y0005681D01*
G01X0004934Y0005681D02*
G01X0004299Y0005681D01*
G01X0004299Y0005681D02*
G01X0004253Y0005669D01*
G01X0004253Y0005669D02*
G01X0004212Y0005645D01*
G01X0004212Y0005645D02*
G01X0004178Y0005612D01*
G01X0004178Y0005612D02*
G01X0004155Y0005571D01*
G01X0004155Y0005571D02*
G01X0004142Y0005525D01*
G01X0004142Y0005525D02*
G01X0004142Y0005323D01*
G01X0004142Y0005323D02*
G01X0004934Y0005323D01*
G01X0004934Y0005323D02*
G01X0004934Y0005286D01*
G01X0004934Y0005286D02*
G01X0004142Y0005286D01*
G01X0004142Y0005286D02*
G01X0004142Y0005084D01*
G01X0004142Y0005084D02*
G01X0004155Y0005038D01*
G01X0004155Y0005038D02*
G01X0004178Y0004997D01*
G01X0004142Y0005139D02*
G01X0002539Y0005139D01*
G01X0002539Y0005298D02*
G01X0004934Y0005298D01*
G01X0004971Y0005298D02*
G01X0007611Y0005298D01*
G01X0007611Y0005139D02*
G01X0007648Y0005139D01*
G01X0007648Y0004981D02*
G01X0007611Y0004981D01*
G01X0006872Y0004981D02*
G01X0005710Y0004981D01*
G01X0005726Y0004997D02*
G01X0005750Y0005038D01*
G01X0005750Y0005038D02*
G01X0005762Y0005084D01*
G01X0005762Y0005084D02*
G01X0005762Y0005286D01*
G01X0005762Y0005286D02*
G01X0004971Y0005286D01*
G01X0004971Y0005286D02*
G01X0004971Y0004927D01*
G01X0004971Y0004927D02*
G01X0005606Y0004927D01*
G01X0005606Y0004927D02*
G01X0005652Y0004940D01*
G01X0005652Y0004940D02*
G01X0005693Y0004963D01*
G01X0005693Y0004963D02*
G01X0005726Y0004997D01*
G01X0005762Y0005139D02*
G01X0006820Y0005139D01*
G01X0006820Y0005456D02*
G01X0005762Y0005456D01*
G01X0005762Y0005525D02*
G01X0005750Y0005571D01*
G01X0005750Y0005571D02*
G01X0005726Y0005612D01*
G01X0005726Y0005612D02*
G01X0005693Y0005645D01*
G01X0005693Y0005645D02*
G01X0005652Y0005669D01*
G01X0005652Y0005669D02*
G01X0005606Y0005681D01*
G01X0005606Y0005681D02*
G01X0004971Y0005681D01*
G01X0004971Y0005681D02*
G01X0004971Y0005323D01*
G01X0004971Y0005323D02*
G01X0005762Y0005323D01*
G01X0005762Y0005323D02*
G01X0005762Y0005525D01*
G01X0005723Y0005615D02*
G01X0006859Y0005615D01*
G01X0008061Y0006891D02*
G01X0007779Y0007172D01*
G01X0007779Y0007172D02*
G01X0007779Y0007570D01*
G01X0007779Y0007570D02*
G01X0007999Y0007790D01*
G01X0007999Y0007790D02*
G01X0007999Y0008149D01*
G01X0007999Y0008149D02*
G01X0007957Y0008192D01*
G01X0007957Y0008192D02*
G01X0007940Y0008175D01*
G01X0007940Y0008175D02*
G01X0007227Y0008175D01*
G01X0007227Y0008175D02*
G01X0006792Y0007741D01*
G01X0006792Y0007741D02*
G01X0006697Y0007702D01*
G01X0006697Y0007702D02*
G01X0006593Y0007702D01*
G01X0006593Y0007702D02*
G01X0005097Y0007702D01*
G01X0005097Y0007702D02*
G01X0005002Y0007741D01*
G01X0005002Y0007741D02*
G01X0004929Y0007814D01*
G01X0004929Y0007814D02*
G01X0004568Y0008175D01*
G01X0004568Y0008175D02*
G01X0003854Y0008175D01*
G01X0003854Y0008175D02*
G01X0003749Y0008281D01*
G01X0003749Y0008281D02*
G01X0003749Y0008824D01*
G01X0003749Y0008824D02*
G01X0003854Y0008929D01*
G01X0003854Y0008929D02*
G01X0005263Y0008929D01*
G01X0005263Y0008929D02*
G01X0005368Y0008824D01*
G01X0005368Y0008824D02*
G01X0005368Y0008281D01*
G01X0005368Y0008281D02*
G01X0005309Y0008222D01*
G01X0005309Y0008222D02*
G01X0006485Y0008222D01*
G01X0006485Y0008222D02*
G01X0006426Y0008281D01*
G01X0006426Y0008281D02*
G01X0006426Y0008824D01*
G01X0006426Y0008824D02*
G01X0006531Y0008929D01*
G01X0006531Y0008929D02*
G01X0007940Y0008929D01*
G01X0007940Y0008929D02*
G01X0008046Y0008824D01*
G01X0008046Y0008824D02*
G01X0008046Y0008800D01*
G01X0008046Y0008800D02*
G01X0008111Y0008773D01*
G01X0008111Y0008773D02*
G01X0008407Y0008477D01*
G01X0008407Y0008477D02*
G01X0008480Y0008404D01*
G01X0008480Y0008404D02*
G01X0008519Y0008309D01*
G01X0008519Y0008309D02*
G01X0008519Y0007790D01*
G01X0008519Y0007790D02*
G01X0008739Y0007570D01*
G01X0008739Y0007570D02*
G01X0008739Y0007172D01*
G01X0008739Y0007172D02*
G01X0008458Y0006891D01*
G01X0008458Y0006891D02*
G01X0008061Y0006891D01*
G01X0007910Y0007042D02*
G01X0000664Y0007042D01*
G01X0000664Y0007200D02*
G01X0007779Y0007200D01*
G01X0007779Y0007359D02*
G01X0000664Y0007359D01*
G01X0000664Y0007517D02*
G01X0007779Y0007517D01*
G01X0007885Y0007676D02*
G01X0000664Y0007676D01*
G01X0000664Y0007835D02*
G01X0004909Y0007835D01*
G01X0004750Y0007993D02*
G01X0000664Y0007993D01*
G01X0000664Y0008152D02*
G01X0004592Y0008152D01*
G01X0004559Y0008552D02*
G01X0005149Y0007962D01*
G01X0005149Y0007962D02*
G01X0006645Y0007962D01*
G01X0006645Y0007962D02*
G01X0007236Y0008552D01*
G01X0007236Y0008552D02*
G01X0007964Y0008552D01*
G01X0007964Y0008552D02*
G01X0008259Y0008257D01*
G01X0008259Y0008257D02*
G01X0008259Y0007371D01*
G01X0007999Y0007835D02*
G01X0006886Y0007835D01*
G01X0007044Y0007993D02*
G01X0007999Y0007993D01*
G01X0007997Y0008152D02*
G01X0007203Y0008152D01*
G01X0006426Y0008310D02*
G01X0005368Y0008310D01*
G01X0005368Y0008469D02*
G01X0006426Y0008469D01*
G01X0006426Y0008627D02*
G01X0005368Y0008627D01*
G01X0005368Y0008786D02*
G01X0006426Y0008786D01*
G01X0006582Y0009750D02*
G01X0007217Y0009750D01*
G01X0007217Y0009750D02*
G01X0007217Y0010108D01*
G01X0007217Y0010108D02*
G01X0007254Y0010108D01*
G01X0007254Y0010108D02*
G01X0007254Y0009750D01*
G01X0007254Y0009750D02*
G01X0007889Y0009750D01*
G01X0007889Y0009750D02*
G01X0007935Y0009763D01*
G01X0007935Y0009763D02*
G01X0007976Y0009786D01*
G01X0007976Y0009786D02*
G01X0008010Y0009820D01*
G01X0008010Y0009820D02*
G01X0008033Y0009861D01*
G01X0008033Y0009861D02*
G01X0008046Y0009906D01*
G01X0008046Y0009906D02*
G01X0008046Y0010109D01*
G01X0008046Y0010109D02*
G01X0007254Y0010109D01*
G01X0007254Y0010109D02*
G01X0007254Y0010146D01*
G01X0007254Y0010146D02*
G01X0007217Y0010146D01*
G01X0007217Y0010146D02*
G01X0007217Y0010504D01*
G01X0007217Y0010504D02*
G01X0006582Y0010504D01*
G01X0006582Y0010504D02*
G01X0006536Y0010492D01*
G01X0006536Y0010492D02*
G01X0006495Y0010468D01*
G01X0006495Y0010468D02*
G01X0006462Y0010434D01*
G01X0006462Y0010434D02*
G01X0006438Y0010393D01*
G01X0006438Y0010393D02*
G01X0006426Y0010348D01*
G01X0006426Y0010348D02*
G01X0006426Y0010146D01*
G01X0006426Y0010146D02*
G01X0007217Y0010146D01*
G01X0007217Y0010146D02*
G01X0007217Y0010109D01*
G01X0007217Y0010109D02*
G01X0006426Y0010109D01*
G01X0006426Y0010109D02*
G01X0006426Y0009906D01*
G01X0006426Y0009906D02*
G01X0006438Y0009861D01*
G01X0006438Y0009861D02*
G01X0006462Y0009820D01*
G01X0006462Y0009820D02*
G01X0006495Y0009786D01*
G01X0006495Y0009786D02*
G01X0006536Y0009763D01*
G01X0006536Y0009763D02*
G01X0006582Y0009750D01*
G01X0006429Y0009896D02*
G01X0005366Y0009896D01*
G01X0005368Y0009906D02*
G01X0005368Y0010109D01*
G01X0005368Y0010109D02*
G01X0004577Y0010109D01*
G01X0004577Y0010109D02*
G01X0004577Y0010146D01*
G01X0004577Y0010146D02*
G01X0004540Y0010146D01*
G01X0004540Y0010146D02*
G01X0004540Y0010504D01*
G01X0004540Y0010504D02*
G01X0003905Y0010504D01*
G01X0003905Y0010504D02*
G01X0003859Y0010492D01*
G01X0003859Y0010492D02*
G01X0003818Y0010468D01*
G01X0003818Y0010468D02*
G01X0003785Y0010434D01*
G01X0003785Y0010434D02*
G01X0003761Y0010393D01*
G01X0003761Y0010393D02*
G01X0003749Y0010348D01*
G01X0003749Y0010348D02*
G01X0003749Y0010146D01*
G01X0003749Y0010146D02*
G01X0004540Y0010146D01*
G01X0004540Y0010146D02*
G01X0004540Y0010109D01*
G01X0004540Y0010109D02*
G01X0003749Y0010109D01*
G01X0003749Y0010109D02*
G01X0003749Y0009906D01*
G01X0003749Y0009906D02*
G01X0003761Y0009861D01*
G01X0003761Y0009861D02*
G01X0003785Y0009820D01*
G01X0003785Y0009820D02*
G01X0003818Y0009786D01*
G01X0003818Y0009786D02*
G01X0003859Y0009763D01*
G01X0003859Y0009763D02*
G01X0003905Y0009750D01*
G01X0003905Y0009750D02*
G01X0004540Y0009750D01*
G01X0004540Y0009750D02*
G01X0004540Y0010108D01*
G01X0004540Y0010108D02*
G01X0004577Y0010108D01*
G01X0004577Y0010108D02*
G01X0004577Y0009750D01*
G01X0004577Y0009750D02*
G01X0005212Y0009750D01*
G01X0005212Y0009750D02*
G01X0005258Y0009763D01*
G01X0005258Y0009763D02*
G01X0005299Y0009786D01*
G01X0005299Y0009786D02*
G01X0005333Y0009820D01*
G01X0005333Y0009820D02*
G01X0005356Y0009861D01*
G01X0005356Y0009861D02*
G01X0005368Y0009906D01*
G01X0005368Y0010054D02*
G01X0006426Y0010054D01*
G01X0006426Y0010213D02*
G01X0005368Y0010213D01*
G01X0005368Y0010146D02*
G01X0005368Y0010348D01*
G01X0005368Y0010348D02*
G01X0005356Y0010393D01*
G01X0005356Y0010393D02*
G01X0005333Y0010434D01*
G01X0005333Y0010434D02*
G01X0005299Y0010468D01*
G01X0005299Y0010468D02*
G01X0005258Y0010492D01*
G01X0005258Y0010492D02*
G01X0005212Y0010504D01*
G01X0005212Y0010504D02*
G01X0004577Y0010504D01*
G01X0004577Y0010504D02*
G01X0004577Y0010146D01*
G01X0004577Y0010146D02*
G01X0005368Y0010146D01*
G01X0005362Y0010371D02*
G01X0006432Y0010371D01*
G01X0007217Y0010371D02*
G01X0007254Y0010371D01*
G01X0007254Y0010504D02*
G01X0007254Y0010146D01*
G01X0007254Y0010146D02*
G01X0008046Y0010146D01*
G01X0008046Y0010146D02*
G01X0008046Y0010348D01*
G01X0008046Y0010348D02*
G01X0008033Y0010393D01*
G01X0008033Y0010393D02*
G01X0008010Y0010434D01*
G01X0008010Y0010434D02*
G01X0007976Y0010468D01*
G01X0007976Y0010468D02*
G01X0007935Y0010492D01*
G01X0007935Y0010492D02*
G01X0007889Y0010504D01*
G01X0007889Y0010504D02*
G01X0007254Y0010504D01*
G01X0007254Y0010213D02*
G01X0007217Y0010213D01*
G01X0007217Y0010054D02*
G01X0007254Y0010054D01*
G01X0007254Y0009896D02*
G01X0007217Y0009896D01*
G01X0008043Y0009896D02*
G01X0009475Y0009896D01*
G01X0009354Y0009775D02*
G01X0009635Y0010056D01*
G01X0009635Y0010056D02*
G01X0010033Y0010056D01*
G01X0010033Y0010056D02*
G01X0010314Y0009775D01*
G01X0010314Y0009775D02*
G01X0010314Y0009377D01*
G01X0010314Y0009377D02*
G01X0010033Y0009096D01*
G01X0010033Y0009096D02*
G01X0009635Y0009096D01*
G01X0009635Y0009096D02*
G01X0009354Y0009377D01*
G01X0009354Y0009377D02*
G01X0009354Y0009775D01*
G01X0009354Y0009737D02*
G01X0003326Y0009737D01*
G01X0003326Y0009716D02*
G01X0003045Y0009434D01*
G01X0003045Y0009434D02*
G01X0002647Y0009434D01*
G01X0002647Y0009434D02*
G01X0002366Y0009716D01*
G01X0002366Y0009716D02*
G01X0002366Y0010113D01*
G01X0002366Y0010113D02*
G01X0002647Y0010394D01*
G01X0002647Y0010394D02*
G01X0003045Y0010394D01*
G01X0003045Y0010394D02*
G01X0003326Y0010113D01*
G01X0003326Y0010113D02*
G01X0003326Y0009716D01*
G01X0003326Y0009896D02*
G01X0003752Y0009896D01*
G01X0003749Y0010054D02*
G01X0003326Y0010054D01*
G01X0003227Y0010213D02*
G01X0003749Y0010213D01*
G01X0003755Y0010371D02*
G01X0003068Y0010371D01*
G01X0003045Y0010434D02*
G01X0002866Y0010434D01*
G01X0002866Y0010434D02*
G01X0002866Y0010894D01*
G01X0002866Y0010894D02*
G01X0002826Y0010894D01*
G01X0002826Y0010894D02*
G01X0002826Y0010434D01*
G01X0002826Y0010434D02*
G01X0002647Y0010434D01*
G01X0002647Y0010434D02*
G01X0002366Y0010716D01*
G01X0002366Y0010716D02*
G01X0002366Y0010894D01*
G01X0002366Y0010894D02*
G01X0002826Y0010894D01*
G01X0002826Y0010894D02*
G01X0002826Y0010934D01*
G01X0002826Y0010934D02*
G01X0002366Y0010934D01*
G01X0002366Y0010934D02*
G01X0002366Y0011113D01*
G01X0002366Y0011113D02*
G01X0002647Y0011394D01*
G01X0002647Y0011394D02*
G01X0002826Y0011394D01*
G01X0002826Y0011394D02*
G01X0002826Y0010935D01*
G01X0002826Y0010935D02*
G01X0002866Y0010935D01*
G01X0002866Y0010935D02*
G01X0002866Y0011394D01*
G01X0002866Y0011394D02*
G01X0002998Y0011394D01*
G01X0002998Y0011394D02*
G01X0002958Y0011434D01*
G01X0002958Y0011434D02*
G01X0002647Y0011434D01*
G01X0002647Y0011434D02*
G01X0002366Y0011716D01*
G01X0002366Y0011716D02*
G01X0002366Y0012113D01*
G01X0002366Y0012113D02*
G01X0002647Y0012394D01*
G01X0002647Y0012394D02*
G01X0003045Y0012394D01*
G01X0003045Y0012394D02*
G01X0003326Y0012113D01*
G01X0003326Y0012113D02*
G01X0003326Y0011863D01*
G01X0003326Y0011863D02*
G01X0007071Y0011863D01*
G01X0007071Y0011863D02*
G01X0007209Y0012001D01*
G01X0007209Y0012001D02*
G01X0007538Y0012001D01*
G01X0007538Y0012001D02*
G01X0007771Y0011768D01*
G01X0007771Y0011768D02*
G01X0007771Y0011439D01*
G01X0007771Y0011439D02*
G01X0007538Y0011206D01*
G01X0007538Y0011206D02*
G01X0007209Y0011206D01*
G01X0007209Y0011206D02*
G01X0007071Y0011343D01*
G01X0007071Y0011343D02*
G01X0003209Y0011343D01*
G01X0003209Y0011343D02*
G01X0003105Y0011343D01*
G01X0003105Y0011343D02*
G01X0003089Y0011350D01*
G01X0003089Y0011350D02*
G01X0003326Y0011113D01*
G01X0003326Y0011113D02*
G01X0003326Y0010934D01*
G01X0003326Y0010934D02*
G01X0002866Y0010934D01*
G01X0002866Y0010934D02*
G01X0002866Y0010894D01*
G01X0002866Y0010894D02*
G01X0003326Y0010894D01*
G01X0003326Y0010894D02*
G01X0003326Y0010716D01*
G01X0003326Y0010716D02*
G01X0003045Y0010434D01*
G01X0003140Y0010530D02*
G01X0009354Y0010530D01*
G01X0009354Y0010377D02*
G01X0009635Y0010096D01*
G01X0009635Y0010096D02*
G01X0010033Y0010096D01*
G01X0010033Y0010096D02*
G01X0010314Y0010377D01*
G01X0010314Y0010377D02*
G01X0010314Y0010775D01*
G01X0010314Y0010775D02*
G01X0010033Y0011056D01*
G01X0010033Y0011056D02*
G01X0009635Y0011056D01*
G01X0009635Y0011056D02*
G01X0009354Y0010775D01*
G01X0009354Y0010775D02*
G01X0009354Y0010377D01*
G01X0009360Y0010371D02*
G01X0008039Y0010371D01*
G01X0008046Y0010213D02*
G01X0009519Y0010213D01*
G01X0009634Y0010054D02*
G01X0008046Y0010054D01*
G01X0008080Y0008786D02*
G01X0009365Y0008786D01*
G01X0009354Y0008775D02*
G01X0009354Y0008377D01*
G01X0009354Y0008377D02*
G01X0009635Y0008096D01*
G01X0009635Y0008096D02*
G01X0010033Y0008096D01*
G01X0010033Y0008096D02*
G01X0010314Y0008377D01*
G01X0010314Y0008377D02*
G01X0010314Y0008775D01*
G01X0010314Y0008775D02*
G01X0010033Y0009056D01*
G01X0010033Y0009056D02*
G01X0009635Y0009056D01*
G01X0009635Y0009056D02*
G01X0009354Y0008775D01*
G01X0009354Y0008627D02*
G01X0008257Y0008627D01*
G01X0008415Y0008469D02*
G01X0009354Y0008469D01*
G01X0009421Y0008310D02*
G01X0008519Y0008310D01*
G01X0008519Y0008152D02*
G01X0009580Y0008152D01*
G01X0009635Y0008056D02*
G01X0009354Y0007775D01*
G01X0009354Y0007775D02*
G01X0009354Y0007377D01*
G01X0009354Y0007377D02*
G01X0009635Y0007096D01*
G01X0009635Y0007096D02*
G01X0010033Y0007096D01*
G01X0010033Y0007096D02*
G01X0010314Y0007377D01*
G01X0010314Y0007377D02*
G01X0010314Y0007775D01*
G01X0010314Y0007775D02*
G01X0010033Y0008056D01*
G01X0010033Y0008056D02*
G01X0009635Y0008056D01*
G01X0009573Y0007993D02*
G01X0008519Y0007993D01*
G01X0008519Y0007835D02*
G01X0009414Y0007835D01*
G01X0009354Y0007676D02*
G01X0008633Y0007676D01*
G01X0008739Y0007517D02*
G01X0009354Y0007517D01*
G01X0009372Y0007359D02*
G01X0008739Y0007359D01*
G01X0008739Y0007200D02*
G01X0009531Y0007200D01*
G01X0009635Y0007056D02*
G01X0009354Y0006775D01*
G01X0009354Y0006775D02*
G01X0009354Y0006377D01*
G01X0009354Y0006377D02*
G01X0009635Y0006096D01*
G01X0009635Y0006096D02*
G01X0010033Y0006096D01*
G01X0010033Y0006096D02*
G01X0010314Y0006377D01*
G01X0010314Y0006377D02*
G01X0010314Y0006775D01*
G01X0010314Y0006775D02*
G01X0010033Y0007056D01*
G01X0010033Y0007056D02*
G01X0009635Y0007056D01*
G01X0009621Y0007042D02*
G01X0008609Y0007042D01*
G01X0009354Y0006725D02*
G01X0000664Y0006725D01*
G01X0000664Y0006883D02*
G01X0009463Y0006883D01*
G01X0009354Y0006566D02*
G01X0000664Y0006566D01*
G01X0000664Y0006408D02*
G01X0009354Y0006408D01*
G01X0009482Y0006249D02*
G01X0000664Y0006249D01*
G01X0000664Y0006091D02*
G01X0010934Y0006091D01*
G01X0010934Y0006249D02*
G01X0010186Y0006249D01*
G01X0010314Y0006408D02*
G01X0010934Y0006408D01*
G01X0010934Y0006566D02*
G01X0010314Y0006566D01*
G01X0010314Y0006725D02*
G01X0010934Y0006725D01*
G01X0010934Y0006883D02*
G01X0010206Y0006883D01*
G01X0010047Y0007042D02*
G01X0010934Y0007042D01*
G01X0010934Y0007200D02*
G01X0010137Y0007200D01*
G01X0010296Y0007359D02*
G01X0010934Y0007359D01*
G01X0010934Y0007517D02*
G01X0010314Y0007517D01*
G01X0010314Y0007676D02*
G01X0010934Y0007676D01*
G01X0010934Y0007835D02*
G01X0010254Y0007835D01*
G01X0010096Y0007993D02*
G01X0010934Y0007993D01*
G01X0010934Y0008152D02*
G01X0010089Y0008152D01*
G01X0010247Y0008310D02*
G01X0010934Y0008310D01*
G01X0010934Y0008469D02*
G01X0010314Y0008469D01*
G01X0010314Y0008627D02*
G01X0010934Y0008627D01*
G01X0010934Y0008786D02*
G01X0010303Y0008786D01*
G01X0010144Y0008944D02*
G01X0010934Y0008944D01*
G01X0010934Y0009103D02*
G01X0010040Y0009103D01*
G01X0010198Y0009261D02*
G01X0010934Y0009261D01*
G01X0010934Y0009420D02*
G01X0010314Y0009420D01*
G01X0010314Y0009579D02*
G01X0010934Y0009579D01*
G01X0010934Y0009737D02*
G01X0010314Y0009737D01*
G01X0010193Y0009896D02*
G01X0010934Y0009896D01*
G01X0010934Y0010054D02*
G01X0010035Y0010054D01*
G01X0010150Y0010213D02*
G01X0010934Y0010213D01*
G01X0010934Y0010371D02*
G01X0010308Y0010371D01*
G01X0010314Y0010530D02*
G01X0010934Y0010530D01*
G01X0010934Y0010688D02*
G01X0010314Y0010688D01*
G01X0010242Y0010847D02*
G01X0010934Y0010847D01*
G01X0010934Y0011005D02*
G01X0010083Y0011005D01*
G01X0009585Y0011005D02*
G01X0003326Y0011005D01*
G01X0003326Y0010847D02*
G01X0009426Y0010847D01*
G01X0009354Y0010688D02*
G01X0003299Y0010688D01*
G01X0002866Y0010688D02*
G01X0002826Y0010688D01*
G01X0002826Y0010530D02*
G01X0002866Y0010530D01*
G01X0002624Y0010371D02*
G01X0002145Y0010371D01*
G01X0002145Y0010216D02*
G01X0001864Y0009934D01*
G01X0001864Y0009934D02*
G01X0001466Y0009934D01*
G01X0001466Y0009934D02*
G01X0001185Y0010216D01*
G01X0001185Y0010216D02*
G01X0001185Y0010613D01*
G01X0001185Y0010613D02*
G01X0001466Y0010894D01*
G01X0001466Y0010894D02*
G01X0001864Y0010894D01*
G01X0001864Y0010894D02*
G01X0002145Y0010613D01*
G01X0002145Y0010613D02*
G01X0002145Y0010216D01*
G01X0002142Y0010213D02*
G01X0002465Y0010213D01*
G01X0002366Y0010054D02*
G01X0001983Y0010054D01*
G01X0002366Y0009896D02*
G01X0000664Y0009896D01*
G01X0000664Y0010054D02*
G01X0001346Y0010054D01*
G01X0001188Y0010213D02*
G01X0000664Y0010213D01*
G01X0000664Y0010371D02*
G01X0001185Y0010371D01*
G01X0001185Y0010530D02*
G01X0000664Y0010530D01*
G01X0000664Y0010688D02*
G01X0001260Y0010688D01*
G01X0001418Y0010847D02*
G01X0000664Y0010847D01*
G01X0000664Y0011005D02*
G01X0001395Y0011005D01*
G01X0001466Y0010934D02*
G01X0001645Y0010934D01*
G01X0001645Y0010934D02*
G01X0001645Y0011394D01*
G01X0001645Y0011394D02*
G01X0001685Y0011394D01*
G01X0001685Y0011394D02*
G01X0001685Y0010934D01*
G01X0001685Y0010934D02*
G01X0001864Y0010934D01*
G01X0001864Y0010934D02*
G01X0002145Y0011216D01*
G01X0002145Y0011216D02*
G01X0002145Y0011394D01*
G01X0002145Y0011394D02*
G01X0001685Y0011394D01*
G01X0001685Y0011394D02*
G01X0001685Y0011434D01*
G01X0001685Y0011434D02*
G01X0002145Y0011434D01*
G01X0002145Y0011434D02*
G01X0002145Y0011613D01*
G01X0002145Y0011613D02*
G01X0001864Y0011894D01*
G01X0001864Y0011894D02*
G01X0001685Y0011894D01*
G01X0001685Y0011894D02*
G01X0001685Y0011435D01*
G01X0001685Y0011435D02*
G01X0001645Y0011435D01*
G01X0001645Y0011435D02*
G01X0001645Y0011894D01*
G01X0001645Y0011894D02*
G01X0001466Y0011894D01*
G01X0001466Y0011894D02*
G01X0001185Y0011613D01*
G01X0001185Y0011613D02*
G01X0001185Y0011434D01*
G01X0001185Y0011434D02*
G01X0001645Y0011434D01*
G01X0001645Y0011434D02*
G01X0001645Y0011394D01*
G01X0001645Y0011394D02*
G01X0001185Y0011394D01*
G01X0001185Y0011394D02*
G01X0001185Y0011216D01*
G01X0001185Y0011216D02*
G01X0001466Y0010934D01*
G01X0001645Y0011005D02*
G01X0001685Y0011005D01*
G01X0001685Y0011164D02*
G01X0001645Y0011164D01*
G01X0001645Y0011322D02*
G01X0001685Y0011322D01*
G01X0001685Y0011481D02*
G01X0001645Y0011481D01*
G01X0001645Y0011640D02*
G01X0001685Y0011640D01*
G01X0001685Y0011798D02*
G01X0001645Y0011798D01*
G01X0001370Y0011798D02*
G01X0000664Y0011798D01*
G01X0000664Y0011640D02*
G01X0001211Y0011640D01*
G01X0001185Y0011481D02*
G01X0000664Y0011481D01*
G01X0000664Y0011322D02*
G01X0001185Y0011322D01*
G01X0001237Y0011164D02*
G01X0000664Y0011164D01*
G01X0000664Y0011957D02*
G01X0002366Y0011957D01*
G01X0002368Y0012115D02*
G01X0000664Y0012115D01*
G01X0000664Y0012274D02*
G01X0002526Y0012274D01*
G01X0002846Y0011914D02*
G01X0003157Y0011603D01*
G01X0003157Y0011603D02*
G01X0007374Y0011603D01*
G01X0007655Y0011322D02*
G01X0010934Y0011322D01*
G01X0010934Y0011164D02*
G01X0003275Y0011164D01*
G01X0003117Y0011322D02*
G01X0007092Y0011322D01*
G01X0007164Y0011957D02*
G01X0003326Y0011957D01*
G01X0003324Y0012115D02*
G01X0010934Y0012115D01*
G01X0010934Y0011957D02*
G01X0007583Y0011957D01*
G01X0007741Y0011798D02*
G01X0010934Y0011798D01*
G01X0010934Y0011640D02*
G01X0007771Y0011640D01*
G01X0007771Y0011481D02*
G01X0010934Y0011481D01*
G01X0010934Y0012274D02*
G01X0003165Y0012274D01*
G01X0002442Y0011640D02*
G01X0002119Y0011640D01*
G01X0002145Y0011481D02*
G01X0002601Y0011481D01*
G01X0002575Y0011322D02*
G01X0002145Y0011322D01*
G01X0002093Y0011164D02*
G01X0002417Y0011164D01*
G01X0002366Y0011005D02*
G01X0001935Y0011005D01*
G01X0001911Y0010847D02*
G01X0002366Y0010847D01*
G01X0002393Y0010688D02*
G01X0002070Y0010688D01*
G01X0002145Y0010530D02*
G01X0002552Y0010530D01*
G01X0002826Y0010847D02*
G01X0002866Y0010847D01*
G01X0002866Y0011005D02*
G01X0002826Y0011005D01*
G01X0002826Y0011164D02*
G01X0002866Y0011164D01*
G01X0002866Y0011322D02*
G01X0002826Y0011322D01*
G01X0002366Y0011798D02*
G01X0001960Y0011798D01*
G01X0002023Y0012762D02*
G01X0001701Y0012762D01*
G01X0001701Y0012762D02*
G01X0001403Y0012885D01*
G01X0001403Y0012885D02*
G01X0001175Y0013113D01*
G01X0001175Y0013113D02*
G01X0001052Y0013411D01*
G01X0001052Y0013411D02*
G01X0001052Y0013733D01*
G01X0001052Y0013733D02*
G01X0001175Y0014031D01*
G01X0001175Y0014031D02*
G01X0001403Y0014259D01*
G01X0001403Y0014259D02*
G01X0001701Y0014382D01*
G01X0001701Y0014382D02*
G01X0002023Y0014382D01*
G01X0002023Y0014382D02*
G01X0002321Y0014259D01*
G01X0002321Y0014259D02*
G01X0002548Y0014031D01*
G01X0002548Y0014031D02*
G01X0002672Y0013733D01*
G01X0002672Y0013733D02*
G01X0002672Y0013411D01*
G01X0002672Y0013411D02*
G01X0002548Y0013113D01*
G01X0002548Y0013113D02*
G01X0002321Y0012885D01*
G01X0002321Y0012885D02*
G01X0002023Y0012762D01*
G01X0002343Y0012908D02*
G01X0009254Y0012908D01*
G01X0009277Y0012885D02*
G01X0009049Y0013113D01*
G01X0009049Y0013113D02*
G01X0008926Y0013411D01*
G01X0008926Y0013411D02*
G01X0008926Y0013733D01*
G01X0008926Y0013733D02*
G01X0009049Y0014031D01*
G01X0009049Y0014031D02*
G01X0009277Y0014259D01*
G01X0009277Y0014259D02*
G01X0009575Y0014382D01*
G01X0009575Y0014382D02*
G01X0009897Y0014382D01*
G01X0009897Y0014382D02*
G01X0010195Y0014259D01*
G01X0010195Y0014259D02*
G01X0010422Y0014031D01*
G01X0010422Y0014031D02*
G01X0010546Y0013733D01*
G01X0010546Y0013733D02*
G01X0010546Y0013411D01*
G01X0010546Y0013411D02*
G01X0010422Y0013113D01*
G01X0010422Y0013113D02*
G01X0010195Y0012885D01*
G01X0010195Y0012885D02*
G01X0009897Y0012762D01*
G01X0009897Y0012762D02*
G01X0009575Y0012762D01*
G01X0009575Y0012762D02*
G01X0009277Y0012885D01*
G01X0009096Y0013066D02*
G01X0002502Y0013066D01*
G01X0002595Y0013225D02*
G01X0009003Y0013225D01*
G01X0008937Y0013384D02*
G01X0002660Y0013384D01*
G01X0002672Y0013542D02*
G01X0004678Y0013542D01*
G01X0004630Y0013590D02*
G01X0004730Y0013490D01*
G01X0004730Y0013490D02*
G01X0004862Y0013435D01*
G01X0004862Y0013435D02*
G01X0005004Y0013435D01*
G01X0005004Y0013435D02*
G01X0005135Y0013490D01*
G01X0005135Y0013490D02*
G01X0005235Y0013590D01*
G01X0005235Y0013590D02*
G01X0005290Y0013721D01*
G01X0005290Y0013721D02*
G01X0005290Y0013863D01*
G01X0005290Y0013863D02*
G01X0005235Y0013995D01*
G01X0005235Y0013995D02*
G01X0005135Y0014095D01*
G01X0005135Y0014095D02*
G01X0005004Y0014150D01*
G01X0005004Y0014150D02*
G01X0004862Y0014150D01*
G01X0004862Y0014150D02*
G01X0004730Y0014095D01*
G01X0004730Y0014095D02*
G01X0004630Y0013995D01*
G01X0004630Y0013995D02*
G01X0004575Y0013863D01*
G01X0004575Y0013863D02*
G01X0004575Y0013721D01*
G01X0004575Y0013721D02*
G01X0004630Y0013590D01*
G01X0004584Y0013701D02*
G01X0002672Y0013701D01*
G01X0002619Y0013859D02*
G01X0004575Y0013859D01*
G01X0004653Y0014018D02*
G01X0002554Y0014018D01*
G01X0002403Y0014176D02*
G01X0009195Y0014176D01*
G01X0009044Y0014018D02*
G01X0006945Y0014018D01*
G01X0006968Y0013995D02*
G01X0006867Y0014095D01*
G01X0006867Y0014095D02*
G01X0006736Y0014150D01*
G01X0006736Y0014150D02*
G01X0006594Y0014150D01*
G01X0006594Y0014150D02*
G01X0006463Y0014095D01*
G01X0006463Y0014095D02*
G01X0006362Y0013995D01*
G01X0006362Y0013995D02*
G01X0006308Y0013863D01*
G01X0006308Y0013863D02*
G01X0006308Y0013721D01*
G01X0006308Y0013721D02*
G01X0006362Y0013590D01*
G01X0006362Y0013590D02*
G01X0006463Y0013490D01*
G01X0006463Y0013490D02*
G01X0006594Y0013435D01*
G01X0006594Y0013435D02*
G01X0006736Y0013435D01*
G01X0006736Y0013435D02*
G01X0006867Y0013490D01*
G01X0006867Y0013490D02*
G01X0006968Y0013590D01*
G01X0006968Y0013590D02*
G01X0007022Y0013721D01*
G01X0007022Y0013721D02*
G01X0007022Y0013863D01*
G01X0007022Y0013863D02*
G01X0006968Y0013995D01*
G01X0007022Y0013859D02*
G01X0008978Y0013859D01*
G01X0008926Y0013701D02*
G01X0007013Y0013701D01*
G01X0006920Y0013542D02*
G01X0008926Y0013542D01*
G01X0009461Y0014335D02*
G01X0002136Y0014335D01*
G01X0001587Y0014335D02*
G01X0000664Y0014335D01*
G01X0000664Y0014493D02*
G01X0010934Y0014493D01*
G01X0010934Y0014335D02*
G01X0010010Y0014335D01*
G01X0010277Y0014176D02*
G01X0010934Y0014176D01*
G01X0010934Y0014018D02*
G01X0010428Y0014018D01*
G01X0010493Y0013859D02*
G01X0010934Y0013859D01*
G01X0010934Y0013701D02*
G01X0010546Y0013701D01*
G01X0010546Y0013542D02*
G01X0010934Y0013542D01*
G01X0010934Y0013384D02*
G01X0010534Y0013384D01*
G01X0010469Y0013225D02*
G01X0010934Y0013225D01*
G01X0010934Y0013066D02*
G01X0010376Y0013066D01*
G01X0010217Y0012908D02*
G01X0010934Y0012908D01*
G01X0010934Y0012749D02*
G01X0000664Y0012749D01*
G01X0000664Y0012591D02*
G01X0010934Y0012591D01*
G01X0010934Y0012432D02*
G01X0000664Y0012432D01*
G01X0000664Y0012908D02*
G01X0001380Y0012908D01*
G01X0001222Y0013066D02*
G01X0000664Y0013066D01*
G01X0000664Y0013225D02*
G01X0001129Y0013225D01*
G01X0001063Y0013384D02*
G01X0000664Y0013384D01*
G01X0000664Y0013542D02*
G01X0001052Y0013542D01*
G01X0001052Y0013701D02*
G01X0000664Y0013701D01*
G01X0000664Y0013859D02*
G01X0001104Y0013859D01*
G01X0001170Y0014018D02*
G01X0000664Y0014018D01*
G01X0000664Y0014176D02*
G01X0001321Y0014176D01*
G01X0000664Y0014652D02*
G01X0010934Y0014652D01*
G01X0010934Y0014810D02*
G01X0000664Y0014810D01*
G01X0000664Y0014969D02*
G01X0010934Y0014969D01*
G01X0010934Y0015128D02*
G01X0000664Y0015128D01*
G01X0000664Y0015286D02*
G01X0010934Y0015286D01*
G01X0010934Y0015445D02*
G01X0000664Y0015445D01*
G01X0005187Y0013542D02*
G01X0006410Y0013542D01*
G01X0006316Y0013701D02*
G01X0005281Y0013701D01*
G01X0005290Y0013859D02*
G01X0006308Y0013859D01*
G01X0006385Y0014018D02*
G01X0005212Y0014018D01*
G01X0004577Y0010371D02*
G01X0004540Y0010371D01*
G01X0004540Y0010213D02*
G01X0004577Y0010213D01*
G01X0004577Y0010054D02*
G01X0004540Y0010054D01*
G01X0004540Y0009896D02*
G01X0004577Y0009896D01*
G01X0003749Y0008786D02*
G01X0000664Y0008786D01*
G01X0000664Y0008944D02*
G01X0009524Y0008944D01*
G01X0009628Y0009103D02*
G01X0000664Y0009103D01*
G01X0000664Y0009261D02*
G01X0009470Y0009261D01*
G01X0009354Y0009420D02*
G01X0000664Y0009420D01*
G01X0000664Y0009579D02*
G01X0002503Y0009579D01*
G01X0002366Y0009737D02*
G01X0000664Y0009737D01*
G01X0000664Y0008627D02*
G01X0003749Y0008627D01*
G01X0003749Y0008469D02*
G01X0000664Y0008469D01*
G01X0000664Y0008310D02*
G01X0003749Y0008310D01*
G01X0003189Y0009579D02*
G01X0009354Y0009579D01*
G01X0009511Y0005932D02*
G01X0000664Y0005932D01*
G01X0000664Y0005773D02*
G01X0009354Y0005773D01*
G01X0010076Y0005139D02*
G01X0010934Y0005139D01*
G01X0010934Y0004981D02*
G01X0010108Y0004981D01*
G01X0010267Y0004822D02*
G01X0010934Y0004822D01*
G01X0010934Y0004664D02*
G01X0010314Y0004664D01*
G01X0010314Y0004505D02*
G01X0010934Y0004505D01*
G01X0010934Y0004347D02*
G01X0010284Y0004347D01*
G01X0010125Y0004188D02*
G01X0010934Y0004188D01*
G01X0010934Y0004029D02*
G01X0010059Y0004029D01*
G01X0010218Y0003871D02*
G01X0010934Y0003871D01*
G01X0010934Y0003712D02*
G01X0010314Y0003712D01*
G01X0010314Y0003554D02*
G01X0010934Y0003554D01*
G01X0010934Y0003395D02*
G01X0010314Y0003395D01*
G01X0010174Y0003237D02*
G01X0010934Y0003237D01*
G01X0010934Y0003078D02*
G01X0008022Y0003078D01*
G01X0008058Y0002920D02*
G01X0010934Y0002920D01*
G01X0010934Y0002761D02*
G01X0008058Y0002761D01*
G01X0008016Y0002603D02*
G01X0010934Y0002603D01*
G01X0009543Y0004188D02*
G01X0002539Y0004188D01*
G01X0002539Y0004330D02*
G01X0002257Y0004611D01*
G01X0002257Y0004611D02*
G01X0001860Y0004611D01*
G01X0001860Y0004611D02*
G01X0001579Y0004330D01*
G01X0001579Y0004330D02*
G01X0001579Y0003932D01*
G01X0001579Y0003932D02*
G01X0001860Y0003651D01*
G01X0001860Y0003651D02*
G01X0002257Y0003651D01*
G01X0002257Y0003651D02*
G01X0002539Y0003932D01*
G01X0002539Y0003932D02*
G01X0002539Y0004330D01*
G01X0002522Y0004347D02*
G01X0009385Y0004347D01*
G01X0009354Y0004505D02*
G01X0002363Y0004505D01*
G01X0002270Y0004664D02*
G01X0009354Y0004664D01*
G01X0010235Y0005298D02*
G01X0010934Y0005298D01*
G01X0010934Y0005456D02*
G01X0010314Y0005456D01*
G01X0010314Y0005615D02*
G01X0010934Y0005615D01*
G01X0010934Y0005773D02*
G01X0010314Y0005773D01*
G01X0010157Y0005932D02*
G01X0010934Y0005932D01*
G01X0007878Y0002127D02*
G01X0006686Y0002127D01*
G01X0006845Y0001968D02*
G01X0007878Y0001968D01*
G01X0007878Y0001810D02*
G01X0007003Y0001810D01*
G01X0007122Y0001651D02*
G01X0007993Y0001651D01*
G01X0008152Y0001493D02*
G01X0007191Y0001493D01*
G01X0007349Y0001334D02*
G01X0008048Y0001334D01*
G01X0007889Y0001176D02*
G01X0007354Y0001176D01*
G01X0007354Y0001017D02*
G01X0007878Y0001017D01*
G01X0007878Y0000859D02*
G01X0007280Y0000859D01*
G01X0007121Y0000700D02*
G01X0007945Y0000700D01*
G01X0008103Y0000542D02*
G01X0000664Y0000542D01*
G01X0000664Y0000700D02*
G01X0002626Y0000700D01*
G01X0002675Y0000651D02*
G01X0002394Y0000932D01*
G01X0002394Y0000932D02*
G01X0002394Y0001330D01*
G01X0002394Y0001330D02*
G01X0002675Y0001611D01*
G01X0002675Y0001611D02*
G01X0003072Y0001611D01*
G01X0003072Y0001611D02*
G01X0003354Y0001330D01*
G01X0003354Y0001330D02*
G01X0003354Y0000932D01*
G01X0003354Y0000932D02*
G01X0003072Y0000651D01*
G01X0003072Y0000651D02*
G01X0002675Y0000651D01*
G01X0002467Y0000859D02*
G01X0000664Y0000859D01*
G01X0000664Y0001017D02*
G01X0002394Y0001017D01*
G01X0002394Y0001176D02*
G01X0000664Y0001176D01*
G01X0000664Y0001334D02*
G01X0002398Y0001334D01*
G01X0002557Y0001493D02*
G01X0000664Y0001493D01*
G01X0000664Y0001651D02*
G01X0001859Y0001651D01*
G01X0001860Y0001651D02*
G01X0002257Y0001651D01*
G01X0002257Y0001651D02*
G01X0002539Y0001932D01*
G01X0002539Y0001932D02*
G01X0002539Y0002330D01*
G01X0002539Y0002330D02*
G01X0002257Y0002611D01*
G01X0002257Y0002611D02*
G01X0001860Y0002611D01*
G01X0001860Y0002611D02*
G01X0001579Y0002330D01*
G01X0001579Y0002330D02*
G01X0001579Y0001932D01*
G01X0001579Y0001932D02*
G01X0001860Y0001651D01*
G01X0001701Y0001810D02*
G01X0000664Y0001810D01*
G01X0000664Y0001968D02*
G01X0001579Y0001968D01*
G01X0001579Y0002127D02*
G01X0000664Y0002127D01*
G01X0000664Y0002286D02*
G01X0001579Y0002286D01*
G01X0001693Y0002444D02*
G01X0000664Y0002444D01*
G01X0000664Y0002603D02*
G01X0001851Y0002603D01*
G01X0001860Y0002651D02*
G01X0002257Y0002651D01*
G01X0002257Y0002651D02*
G01X0002539Y0002932D01*
G01X0002539Y0002932D02*
G01X0002539Y0003330D01*
G01X0002539Y0003330D02*
G01X0002257Y0003611D01*
G01X0002257Y0003611D02*
G01X0001860Y0003611D01*
G01X0001860Y0003611D02*
G01X0001579Y0003330D01*
G01X0001579Y0003330D02*
G01X0001579Y0002932D01*
G01X0001579Y0002932D02*
G01X0001860Y0002651D01*
G01X0001750Y0002761D02*
G01X0000664Y0002761D01*
G01X0000664Y0002920D02*
G01X0001591Y0002920D01*
G01X0001579Y0003078D02*
G01X0000664Y0003078D01*
G01X0000664Y0003237D02*
G01X0001579Y0003237D01*
G01X0001644Y0003395D02*
G01X0000664Y0003395D01*
G01X0000664Y0003554D02*
G01X0001803Y0003554D01*
G01X0001798Y0003712D02*
G01X0000664Y0003712D01*
G01X0000664Y0003871D02*
G01X0001640Y0003871D01*
G01X0001579Y0004029D02*
G01X0000664Y0004029D01*
G01X0000664Y0004188D02*
G01X0001579Y0004188D01*
G01X0001595Y0004347D02*
G01X0000664Y0004347D01*
G01X0000664Y0004505D02*
G01X0001754Y0004505D01*
G01X0001847Y0004664D02*
G01X0000664Y0004664D01*
G01X0000664Y0004822D02*
G01X0001689Y0004822D01*
G01X0001579Y0004981D02*
G01X0000664Y0004981D01*
G01X0000664Y0005139D02*
G01X0001579Y0005139D01*
G01X0001579Y0005298D02*
G01X0000664Y0005298D01*
G01X0000664Y0005456D02*
G01X0001705Y0005456D01*
G01X0002412Y0005456D02*
G01X0004142Y0005456D01*
G01X0004182Y0005615D02*
G01X0000664Y0005615D01*
G01X0002319Y0003712D02*
G01X0004142Y0003712D01*
G01X0004142Y0003554D02*
G01X0002314Y0003554D01*
G01X0002473Y0003395D02*
G01X0004205Y0003395D01*
G01X0004142Y0003871D02*
G01X0002477Y0003871D01*
G01X0002539Y0004029D02*
G01X0004171Y0004029D01*
G01X0004692Y0003237D02*
G01X0002539Y0003237D01*
G01X0002539Y0003078D02*
G01X0004692Y0003078D01*
G01X0004705Y0002920D02*
G01X0002526Y0002920D01*
G01X0002367Y0002761D02*
G01X0004825Y0002761D01*
G01X0004983Y0002603D02*
G01X0002266Y0002603D01*
G01X0002424Y0002444D02*
G01X0005142Y0002444D01*
G01X0005300Y0002286D02*
G01X0002539Y0002286D01*
G01X0002539Y0002127D02*
G01X0005459Y0002127D01*
G01X0005617Y0001968D02*
G01X0002539Y0001968D01*
G01X0002416Y0001810D02*
G01X0005776Y0001810D01*
G01X0005557Y0001493D02*
G01X0005191Y0001493D01*
G01X0005072Y0001611D02*
G01X0004675Y0001611D01*
G01X0004675Y0001611D02*
G01X0004394Y0001330D01*
G01X0004394Y0001330D02*
G01X0004394Y0000932D01*
G01X0004394Y0000932D02*
G01X0004675Y0000651D01*
G01X0004675Y0000651D02*
G01X0005072Y0000651D01*
G01X0005072Y0000651D02*
G01X0005354Y0000932D01*
G01X0005354Y0000932D02*
G01X0005354Y0001330D01*
G01X0005354Y0001330D02*
G01X0005072Y0001611D01*
G01X0005349Y0001334D02*
G01X0005398Y0001334D01*
G01X0005394Y0001176D02*
G01X0005354Y0001176D01*
G01X0005354Y0001017D02*
G01X0005394Y0001017D01*
G01X0005467Y0000859D02*
G01X0005280Y0000859D01*
G01X0005121Y0000700D02*
G01X0005626Y0000700D01*
G01X0006121Y0000700D02*
G01X0006626Y0000700D01*
G01X0006467Y0000859D02*
G01X0006280Y0000859D01*
G01X0006354Y0001017D02*
G01X0006394Y0001017D01*
G01X0006394Y0001176D02*
G01X0006354Y0001176D01*
G01X0006349Y0001334D02*
G01X0006398Y0001334D01*
G01X0006426Y0001651D02*
G01X0002258Y0001651D01*
G01X0003191Y0001493D02*
G01X0003557Y0001493D01*
G01X0003675Y0001611D02*
G01X0003394Y0001330D01*
G01X0003394Y0001330D02*
G01X0003394Y0000932D01*
G01X0003394Y0000932D02*
G01X0003675Y0000651D01*
G01X0003675Y0000651D02*
G01X0004072Y0000651D01*
G01X0004072Y0000651D02*
G01X0004354Y0000932D01*
G01X0004354Y0000932D02*
G01X0004354Y0001330D01*
G01X0004354Y0001330D02*
G01X0004072Y0001611D01*
G01X0004072Y0001611D02*
G01X0003675Y0001611D01*
G01X0003398Y0001334D02*
G01X0003349Y0001334D01*
G01X0003354Y0001176D02*
G01X0003394Y0001176D01*
G01X0003394Y0001017D02*
G01X0003354Y0001017D01*
G01X0003280Y0000859D02*
G01X0003467Y0000859D01*
G01X0003626Y0000700D02*
G01X0003121Y0000700D01*
G01X0004121Y0000700D02*
G01X0004626Y0000700D01*
G01X0004467Y0000859D02*
G01X0004280Y0000859D01*
G01X0004354Y0001017D02*
G01X0004394Y0001017D01*
G01X0004394Y0001176D02*
G01X0004354Y0001176D01*
G01X0004349Y0001334D02*
G01X0004398Y0001334D01*
G01X0004557Y0001493D02*
G01X0004191Y0001493D01*
G01X0005401Y0002920D02*
G01X0006098Y0002920D01*
G01X0006098Y0003042D02*
G01X0006098Y0002645D01*
G01X0006098Y0002645D02*
G01X0006379Y0002364D01*
G01X0006379Y0002364D02*
G01X0006777Y0002364D01*
G01X0006777Y0002364D02*
G01X0007058Y0002645D01*
G01X0007058Y0002645D02*
G01X0007058Y0003042D01*
G01X0007058Y0003042D02*
G01X0006777Y0003324D01*
G01X0006777Y0003324D02*
G01X0006379Y0003324D01*
G01X0006379Y0003324D02*
G01X0006098Y0003042D01*
G01X0006134Y0003078D02*
G01X0005243Y0003078D01*
G01X0005212Y0003237D02*
G01X0006293Y0003237D01*
G01X0006098Y0002761D02*
G01X0005560Y0002761D01*
G01X0005718Y0002603D02*
G01X0006140Y0002603D01*
G01X0006299Y0002444D02*
G01X0005877Y0002444D01*
G01X0005699Y0003395D02*
G01X0006882Y0003395D01*
G01X0006864Y0003237D02*
G01X0007293Y0003237D01*
G01X0007134Y0003078D02*
G01X0007022Y0003078D01*
G01X0007058Y0002920D02*
G01X0007098Y0002920D01*
G01X0007098Y0002761D02*
G01X0007058Y0002761D01*
G01X0007016Y0002603D02*
G01X0007140Y0002603D01*
G01X0007299Y0002444D02*
G01X0006857Y0002444D01*
G01X0006848Y0004029D02*
G01X0005734Y0004029D01*
G01X0004971Y0004981D02*
G01X0004934Y0004981D01*
G01X0004934Y0005139D02*
G01X0004971Y0005139D01*
G01X0004971Y0005456D02*
G01X0004934Y0005456D01*
G01X0004934Y0005615D02*
G01X0004971Y0005615D01*
G54D13*
G01X0005415Y0006594D03*
G01X0003909Y0007312D03*
G01X0003333Y0005944D03*
G01X0007354Y0010855D03*
G01X0007374Y0011603D03*
G01X0004303Y0011052D03*
M02*
