G75*
G70*
%OFA0B0*%
%FSLAX24Y24*%
%IPPOS*%
%LPD*%
%AMOC8*
5,1,8,0,0,1.08239X$1,22.5*
%
%ADD10C,0.1340*%
%ADD11OC8,0.0680*%
%ADD12C,0.0434*%
%ADD13R,0.1340X0.0474*%
%ADD14OC8,0.0516*%
D10*
X001862Y013572D03*
X009736Y013572D03*
D11*
X002059Y002131D03*
X002059Y003131D03*
X002059Y004131D03*
X002059Y005131D03*
X002874Y001131D03*
X003874Y001131D03*
X004874Y001131D03*
X005874Y001131D03*
X006874Y001131D03*
X006578Y002844D03*
X007578Y002844D03*
X008358Y001966D03*
X008358Y000966D03*
X009834Y003576D03*
X009834Y004576D03*
X009834Y005576D03*
X009834Y006576D03*
X009834Y007576D03*
X009834Y008576D03*
X009834Y009576D03*
X009834Y010576D03*
X008259Y007371D03*
X002846Y009914D03*
X002846Y010914D03*
X002846Y011914D03*
X001665Y011414D03*
X001665Y010414D03*
D12*
X004933Y013792D03*
X006665Y013792D03*
D13*
X007236Y010127D03*
X007236Y008552D03*
X004559Y008552D03*
X004559Y010127D03*
X004952Y005304D03*
X004952Y003729D03*
X007629Y003729D03*
X007629Y005304D03*
D14*
X005415Y006594D03*
X003909Y007312D03*
X003333Y005944D03*
X007354Y010855D03*
X007374Y011603D03*
X004303Y011052D03*
M02*
